<?xml version="1.0" standalone="no"?>
<!DOCTYPE svg PUBLIC "-//W3C//DTD SVG 1.1//EN" "http://www.w3.org/Graphics/SVG/1.1/DTD/svg11.dtd" >
<svg xmlns="http://www.w3.org/2000/svg" xmlns:xlink="http://www.w3.org/1999/xlink" version="1.1">
<metadata>
Created by FontForge 20201107 at Thu Dec 14 13:17:21 2023
 By 
Copyright hy60koshk 2017
"VA-11 Hall-A 6px
</metadata>
<defs>
<font id="VA-11Hall-A6pxNon-mono" horiz-adv-x="1024" >
  <font-face 
    font-family="VA-11 Hall-A 6px Non-mono"
    font-weight="400"
    font-stretch="normal"
    units-per-em="2048"
    panose-1="0 0 4 0 0 0 0 0 0 0"
    ascent="1638"
    descent="-410"
    x-height="1024"
    cap-height="1365"
    bbox="0 -341 1312 1877"
    underline-thickness="102"
    underline-position="153"
    unicode-range="U+0020-2122"
  />
<missing-glyph horiz-adv-x="1483" 
d="M1243 50l-587 784l-587 -784h1174zM50 69l587 784l-587 784v-1568zM1262 69v1568l-587 -784zM656 872l587 784h-1174zM0 0v1706h1312v-1706h-1312z" />
    <glyph glyph-name=".notdef" horiz-adv-x="1483" 
d="M1243 50l-587 784l-587 -784h1174zM50 69l587 784l-587 784v-1568zM1262 69v1568l-587 -784zM656 872l587 784h-1174zM0 0v1706h1312v-1706h-1312z" />
    <glyph glyph-name=".null" horiz-adv-x="0" 
 />
    <glyph glyph-name="nonmarkingreturn" horiz-adv-x="682" 
 />
    <glyph glyph-name="space" unicode=" " 
 />
    <glyph glyph-name="exclam" unicode="!" horiz-adv-x="853" 
d="M341 0v170h171v-170h-171zM341 341v1024h171v-1024h-171z" />
    <glyph glyph-name="quotedbl" unicode="&#x22;" horiz-adv-x="853" 
d="M170 853v512h171v-512h-171zM512 853v512h170v-512h-170z" />
    <glyph glyph-name="numbersign" unicode="#" 
d="M512 512v341h-171v-341h171zM170 0v341h-170v171h170v341h-170v171h170v170h171v-170h171v170h170v-170h171v-171h-171v-341h171v-171h-171v-341h-170v341h-171v-341h-171zM341 1194v171h171v-171h-171zM682 1194v171h171v-171h-171z" />
    <glyph glyph-name="dollar" unicode="$" 
d="M0 170v171h170v-171h-170zM682 170v342h171v-342h-171zM0 682v342h170v-342h-170zM682 853v171h171v-171h-171zM341 -170v170h-171v170h171v342h-171v170h171v342h-171v170h171v171h171v-171h170v-170h-170v-342h170v-170h-170v-342h170v-170h-170v-170h-171z" />
    <glyph glyph-name="percent" unicode="%" 
d="M0 0v170h170v-170h-170zM682 0v170h171v-170h-171zM512 170v171h170v-171h-170zM853 170v171h171v-171h-171zM170 170v342h171v-342h-171zM682 341v171h171v-171h-171zM341 512v170h171v-170h-171zM512 682v171h170v-171h-170zM170 853v171h171v-171h-171zM0 1024v170
h170v-170h-170zM341 1024v170h171v-170h-171zM682 853v341h171v-341h-171zM170 1194v171h171v-171h-171zM853 1194v171h171v-171h-171z" />
    <glyph glyph-name="ampersand" unicode="&#x26;" 
d="M170 0v170h512v-170h-512zM853 0v170h171v-170h-171zM682 170v171h171v-171h-171zM0 170v342h170v-342h-170zM170 512v170h171v-170h-171zM512 341v341h170v-341h-170zM853 341v341h171v-341h-171zM341 682v171h171v-171h-171zM170 853v341h171v-341h-171zM512 853v341
h170v-341h-170zM341 1194v171h171v-171h-171z" />
    <glyph glyph-name="quotesingle" unicode="'" horiz-adv-x="853" 
d="M341 853v512h171v-512h-171z" />
    <glyph glyph-name="parenleft" unicode="(" horiz-adv-x="853" 
d="M512 -341v171h170v-171h-170zM341 -170v340h171v-340h-171zM170 170v683h171v-683h-171zM341 853v341h171v-341h-171zM512 1194v171h170v-171h-170z" />
    <glyph glyph-name="parenright" unicode=")" horiz-adv-x="853" 
d="M170 -341v171h171v-171h-171zM341 -170v340h171v-340h-171zM512 170v683h170v-683h-170zM341 853v341h171v-341h-171zM170 1194v171h171v-171h-171z" />
    <glyph glyph-name="asterisk" unicode="*" 
d="M0 170v171h170v-171h-170zM682 170v171h171v-171h-171zM0 682v171h170v-171h-170zM682 682v171h171v-171h-171zM170 341v341h171v342h171v-342h170v-341h-170v171h-171v-171h-171z" />
    <glyph glyph-name="plus" unicode="+" 
d="M341 170v342h-341v170h341v342h171v-342h341v-170h-341v-342h-171z" />
    <glyph glyph-name="comma" unicode="," horiz-adv-x="832" 
d="M341 -341v511h171v-511h-171z" />
    <glyph glyph-name="hyphen" unicode="-" 
d="M0 512v170h853v-170h-853z" />
    <glyph glyph-name="period" unicode="." horiz-adv-x="853" 
d="M341 0v170h171v-170h-171z" />
    <glyph glyph-name="slash" unicode="/" 
d="M170 -170v340h171v-340h-171zM341 170v342h171v-342h-171zM512 512v341h170v-341h-170zM682 853v341h171v-341h-171z" />
    <glyph glyph-name="zero" unicode="0" 
d="M341 0v170h171v-170h-171zM512 170v171h170v-171h-170zM341 512v341h171v-341h-171zM170 170v171h-170v683h170v-512h171v-342h-171zM170 1024v170h171v-170h-171zM682 341v512h-170v341h170v-170h171v-683h-171zM341 1194v171h171v-171h-171z" />
    <glyph glyph-name="one" unicode="1" 
d="M512 0v1194h-342v171h512v-1365h-170z" />
    <glyph glyph-name="two" unicode="2" 
d="M170 0v341h171v-171h512v-170h-683zM341 341v171h171v-171h-171zM512 512v170h170v-170h-170zM170 1024v170h171v-170h-171zM682 682v512h171v-512h-171zM341 1194v171h341v-171h-341z" />
    <glyph glyph-name="three" unicode="3" 
d="M170 0v170h512v-170h-512zM682 170v512h171v-512h-171zM341 682v171h341v-171h-341zM682 853v341h171v-341h-171zM170 1194v171h512v-171h-512z" />
    <glyph glyph-name="four" unicode="4" horiz-adv-x="1194" 
d="M341 682v342h171v-342h-171zM682 0v341h-512v341h171v-170h341v512h-170v170h170v171h171v-853h171v-171h-171v-341h-171z" />
    <glyph glyph-name="five" unicode="5" 
d="M341 0v170h341v-170h-341zM170 170v171h171v-171h-171zM682 170v512h171v-512h-171zM170 682v683h683v-171h-512v-341h341v-171h-512z" />
    <glyph glyph-name="six" unicode="6" 
d="M341 0v170h341v-170h-341zM682 170v512h171v-512h-171zM170 170v854h171v-171h341v-171h-341v-512h-171zM341 1024v170h171v-170h-171zM512 1194v171h341v-171h-341z" />
    <glyph glyph-name="seven" unicode="7" 
d="M341 0v512h171v-512h-171zM512 512v512h170v-512h-170zM682 1024v170h-512v171h683v-341h-171z" />
    <glyph glyph-name="eight" unicode="8" 
d="M341 0v170h341v-170h-341zM170 170v512h171v-512h-171zM682 170v512h171v-512h-171zM341 682v171h341v-171h-341zM170 853v341h171v-341h-171zM682 853v341h171v-341h-171zM341 1194v171h341v-171h-341z" />
    <glyph glyph-name="nine" unicode="9" 
d="M170 0v170h342v-170h-342zM512 170v171h170v-171h-170zM170 682v512h171v-512h-171zM682 341v171h-341v170h341v512h171v-853h-171zM341 1194v171h341v-171h-341z" />
    <glyph glyph-name="colon" unicode=":" horiz-adv-x="853" 
d="M341 0v170h171v-170h-171zM341 682v171h171v-171h-171z" />
    <glyph glyph-name="semicolon" unicode=";" horiz-adv-x="853" 
d="M341 -341v511h171v-511h-171zM341 682v171h171v-171h-171z" />
    <glyph glyph-name="less" unicode="&#x3c;" 
d="M682 170v171h171v-171h-171zM341 341v171h341v-171h-341zM0 512v341h341v-341h-341zM341 853v171h341v-171h-341zM682 1024v170h171v-170h-171z" />
    <glyph glyph-name="equal" unicode="=" 
d="M0 341v171h853v-171h-853zM0 682v171h853v-171h-853z" />
    <glyph glyph-name="greater" unicode="&#x3e;" 
d="M0 170v171h170v-171h-170zM170 341v171h342v-171h-342zM512 512v341h341v-341h-341zM170 853v171h342v-171h-342zM0 1024v170h170v-170h-170z" />
    <glyph glyph-name="question" unicode="?" 
d="M512 0v170h170v-170h-170zM512 341v341h170v-341h-170zM170 1024v170h171v-170h-171zM682 682v512h171v-512h-171zM341 1194v171h341v-171h-341z" />
    <glyph glyph-name="at" unicode="@" 
d="M341 0v170h512v-170h-512zM170 170v171h171v-171h-171zM341 512v341h171v-341h-171zM0 341v683h170v-683h-170zM170 1024v170h171v-170h-171zM512 341v171h170v341h-170v171h170v170h171v-853h-341zM341 1194v171h341v-171h-341z" />
    <glyph glyph-name="A" unicode="A" 
d="M0 0v341h170v-341h-170zM682 0v341h-512v512h171v-341h171v341h170v-341h171v-512h-171zM341 853v512h171v-512h-171z" />
    <glyph glyph-name="B" unicode="B" 
d="M682 170v512h171v-512h-171zM682 853v341h171v-341h-171zM0 0v1365h682v-171h-512v-341h512v-171h-512v-512h512v-170h-682z" />
    <glyph glyph-name="C" unicode="C" 
d="M341 0v170h341v-170h-341zM170 170v171h171v-171h-171zM682 170v171h171v-171h-171zM0 341v683h170v-683h-170zM170 1024v170h171v-170h-171zM682 1024v170h171v-170h-171zM341 1194v171h341v-171h-341z" />
    <glyph glyph-name="D" unicode="D" 
d="M512 170v171h170v-171h-170zM682 341v683h171v-683h-171zM512 1024v170h170v-170h-170zM0 0v1365h512v-171h-342v-1024h342v-170h-512z" />
    <glyph glyph-name="E" unicode="E" 
d="M0 0v1365h853v-171h-683v-341h512v-171h-512v-512h683v-170h-853z" />
    <glyph glyph-name="F" unicode="F" 
d="M0 0v1365h853v-171h-683v-341h512v-171h-512v-682h-170z" />
    <glyph glyph-name="G" unicode="G" 
d="M170 170v171h171v-171h-171zM341 0v170h341v342h-170v170h341v-682h-512zM0 341v683h170v-683h-170zM170 1024v170h171v-170h-171zM682 1024v170h171v-170h-171zM341 1194v171h341v-171h-341z" />
    <glyph glyph-name="H" unicode="H" 
d="M0 0v1365h170v-512h512v512h171v-1365h-171v682h-512v-682h-170z" />
    <glyph glyph-name="I" unicode="I" horiz-adv-x="853" 
d="M170 0v170h171v1024h-171v171h512v-171h-170v-1024h170v-170h-512z" />
    <glyph glyph-name="J" unicode="J" 
d="M170 0v170h342v-170h-342zM0 170v171h170v-171h-170zM512 170v1024h-171v171h512v-171h-171v-1024h-170z" />
    <glyph glyph-name="K" unicode="K" 
d="M682 0v170h171v-170h-171zM512 170v171h170v-171h-170zM341 341v341h171v-341h-171zM341 853v171h171v-171h-171zM512 1024v170h170v-170h-170zM0 0v1365h170v-512h171v-171h-171v-682h-170zM682 1194v171h171v-171h-171z" />
    <glyph glyph-name="L" unicode="L" horiz-adv-x="853" 
d="M0 0v1365h170v-1195h512v-170h-682z" />
    <glyph glyph-name="M" unicode="M" 
d="M341 512v341h171v-341h-171zM0 0v1365h170v-171h171v-341h-171v-853h-170zM682 0v853h-170v341h170v171h171v-1365h-171z" />
    <glyph glyph-name="N" unicode="N" 
d="M341 512v341h171v-341h-171zM0 0v1365h170v-171h171v-341h-171v-853h-170zM682 0v170h-170v342h170v853h171v-1365h-171z" />
    <glyph glyph-name="O" unicode="O" 
d="M170 0v170h512v-170h-512zM0 170v1024h170v-1024h-170zM682 170v1024h171v-1024h-171zM170 1194v171h512v-171h-512z" />
    <glyph glyph-name="P" unicode="P" 
d="M682 853v341h171v-341h-171zM0 0v1365h682v-171h-512v-341h512v-171h-512v-682h-170z" />
    <glyph glyph-name="Q" unicode="Q" 
d="M512 -341v171h341v-171h-341zM341 -170v170h-171v170h512v-170h-170v-170h-171zM0 170v1024h170v-1024h-170zM682 170v1024h171v-1024h-171zM170 1194v171h512v-171h-512z" />
    <glyph glyph-name="R" unicode="R" 
d="M682 0v170h171v-170h-171zM682 853v341h171v-341h-171zM0 0v1365h682v-171h-512v-341h512v-683h-170v512h-342v-682h-170z" />
    <glyph glyph-name="S" unicode="S" 
d="M170 0v170h512v-170h-512zM0 170v171h170v-171h-170zM682 170v342h171v-342h-171zM512 512v170h170v-170h-170zM170 682v171h342v-171h-342zM0 853v341h170v-341h-170zM682 1024v170h171v-170h-171zM170 1194v171h512v-171h-512z" />
    <glyph glyph-name="T" unicode="T" 
d="M341 0v1194h-341v171h853v-171h-341v-1194h-171z" />
    <glyph glyph-name="U" unicode="U" 
d="M170 0v170h512v-170h-512zM0 170v1195h170v-1195h-170zM682 170v1195h171v-1195h-171z" />
    <glyph glyph-name="V" unicode="V" 
d="M341 0v341h171v-341h-171zM170 341v683h171v-683h-171zM512 341v683h170v-683h-170zM0 1024v341h170v-341h-170zM682 1024v341h171v-341h-171z" />
    <glyph glyph-name="W" unicode="W" 
d="M341 682v512h171v-512h-171zM170 0v512h-170v853h170v-683h171v-682h-171zM512 0v682h170v683h171v-853h-171v-512h-170z" />
    <glyph glyph-name="X" unicode="X" 
d="M0 0v170h170v-170h-170zM682 0v170h171v-170h-171zM170 170v342h171v-342h-171zM512 170v342h170v-342h-170zM341 512v341h171v-341h-171zM170 853v341h171v-341h-171zM512 853v341h170v-341h-170zM0 1194v171h170v-171h-170zM682 1194v171h171v-171h-171z" />
    <glyph glyph-name="Y" unicode="Y" 
d="M341 0v682h171v-682h-171zM170 682v342h171v-342h-171zM512 682v342h170v-342h-170zM0 1024v341h170v-341h-170zM682 1024v341h171v-341h-171z" />
    <glyph glyph-name="Z" unicode="Z" 
d="M0 0v341h170v-171h683v-170h-853zM170 341v171h171v-171h-171zM341 512v341h171v-341h-171zM512 853v171h170v-171h-170zM682 1024v170h-682v171h853v-341h-171z" />
    <glyph glyph-name="bracketleft" unicode="[" horiz-adv-x="853" 
d="M170 -170v1535h512v-171h-341v-1194h341v-170h-512z" />
    <glyph glyph-name="backslash" unicode="\" 
d="M682 -170v340h171v-340h-171zM512 170v342h170v-342h-170zM341 512v512h171v-512h-171zM170 1024v341h171v-341h-171z" />
    <glyph glyph-name="bracketright" unicode="]" horiz-adv-x="853" 
d="M170 -170v170h342v1194h-342v171h512v-1535h-512z" />
    <glyph glyph-name="asciicircum" unicode="^" horiz-adv-x="853" 
d="M170 853v341h171v-341h-171zM512 853v341h170v-341h-170zM341 1194v171h171v-171h-171z" />
    <glyph glyph-name="underscore" unicode="_" 
d="M0 -170v170h1024v-170h-1024z" />
    <glyph glyph-name="grave" unicode="`" horiz-adv-x="853" 
d="M512 853v171h170v-171h-170zM341 1024v341h171v-341h-171z" />
    <glyph glyph-name="a" unicode="a" 
d="M170 170v342h171v-342h-171zM341 0v170h341v342h-341v170h341v171h171v-853h-512zM170 853v171h512v-171h-512z" />
    <glyph glyph-name="b" unicode="b" 
d="M682 170v683h171v-683h-171zM170 0v1365h171v-341h341v-171h-341v-683h341v-170h-512z" />
    <glyph glyph-name="c" unicode="c" 
d="M341 0v170h341v-170h-341zM682 170v171h171v-171h-171zM170 170v683h171v-683h-171zM682 682v171h171v-171h-171zM341 853v171h341v-171h-341z" />
    <glyph glyph-name="d" unicode="d" 
d="M170 170v683h171v-683h-171zM341 0v170h341v683h-341v171h341v341h171v-1365h-512z" />
    <glyph glyph-name="e" unicode="e" 
d="M341 0v170h512v-170h-512zM170 170v683h171v-171h341v171h171v-341h-512v-342h-171zM341 853v171h341v-171h-341z" />
    <glyph glyph-name="f" unicode="f" 
d="M170 0v682h-170v171h170v341h171v-341h341v-171h-341v-682h-171zM341 1194v171h512v-171h-512z" />
    <glyph glyph-name="g" unicode="g" 
d="M341 -341v171h512v-171h-512zM853 -170v170h171v-170h-171zM170 -170v511h171v-171h512v-170h-512v-170h-171zM341 341v171h341v-171h-341zM170 512v341h171v-341h-171zM682 512v341h-341v171h683v-171h-171v-341h-171z" />
    <glyph glyph-name="h" unicode="h" 
d="M682 0v853h171v-853h-171zM170 0v1365h171v-341h341v-171h-341v-853h-171z" />
    <glyph glyph-name="i" unicode="i" horiz-adv-x="853" 
d="M170 0v170h171v683h-171v171h342v-854h170v-170h-512zM341 1194v171h171v-171h-171z" />
    <glyph glyph-name="j" unicode="j" 
d="M170 -341v171h512v-171h-512zM682 -170v1023h-341v171h512v-1194h-171zM682 1194v171h171v-171h-171z" />
    <glyph glyph-name="k" unicode="k" 
d="M853 0v170h171v-170h-171zM682 170v171h171v-171h-171zM512 341v171h170v-171h-170zM512 682v171h170v-171h-170zM682 853v171h342v-171h-342zM170 0v1365h171v-683h171v-170h-171v-512h-171z" />
    <glyph glyph-name="l" unicode="l" horiz-adv-x="853" 
d="M170 0v170h171v1024h-171v171h342v-1195h170v-170h-512z" />
    <glyph glyph-name="m" unicode="m" horiz-adv-x="1194" 
d="M512 0v853h170v-853h-170zM853 0v853h171v-853h-171zM170 0v1024h342v-171h-171v-853h-171zM682 853v171h171v-171h-171z" />
    <glyph glyph-name="n" unicode="n" 
d="M682 0v853h171v-853h-171zM170 0v1024h512v-171h-341v-853h-171z" />
    <glyph glyph-name="o" unicode="o" 
d="M341 0v170h341v-170h-341zM170 170v683h171v-683h-171zM682 170v683h171v-683h-171zM341 853v171h341v-171h-341z" />
    <glyph glyph-name="p" unicode="p" 
d="M682 170v683h171v-683h-171zM170 -341v1365h512v-171h-341v-683h341v-170h-341v-341h-171z" />
    <glyph glyph-name="q" unicode="q" 
d="M170 170v683h171v-683h-171zM682 -341v341h-341v170h341v683h-341v171h512v-1365h-171z" />
    <glyph glyph-name="r" unicode="r" 
d="M170 0v1024h171v-171h171v-171h-171v-682h-171zM512 853v171h341v-171h-341z" />
    <glyph glyph-name="s" unicode="s" 
d="M341 0v170h341v-170h-341zM170 170v171h171v-171h-171zM682 170v171h171v-171h-171zM512 341v171h170v-171h-170zM341 512v170h171v-170h-171zM170 682v171h171v-171h-171zM682 682v171h171v-171h-171zM341 853v171h341v-171h-341z" />
    <glyph glyph-name="t" unicode="t" horiz-adv-x="853" 
d="M341 0v170h341v-170h-341zM170 170v683h-170v171h170v341h171v-341h341v-171h-341v-683h-171z" />
    <glyph glyph-name="u" unicode="u" 
d="M170 170v854h171v-854h-171zM341 0v170h341v854h171v-1024h-512z" />
    <glyph glyph-name="v" unicode="v" 
d="M341 0v341h171v-341h-171zM170 341v341h171v-341h-171zM512 341v341h170v-341h-170zM0 682v342h170v-342h-170zM682 682v342h171v-342h-171z" />
    <glyph glyph-name="w" unicode="w" 
d="M341 512v341h171v-341h-171zM170 0v341h-170v683h170v-512h171v-512h-171zM512 0v512h170v512h171v-683h-171v-341h-170z" />
    <glyph glyph-name="x" unicode="x" 
d="M0 0v170h170v-170h-170zM682 0v170h171v-170h-171zM170 170v171h171v-171h-171zM512 170v171h170v-171h-170zM341 341v341h171v-341h-171zM170 682v171h171v-171h-171zM512 682v171h170v-171h-170zM0 853v171h170v-171h-170zM682 853v171h171v-171h-171z" />
    <glyph glyph-name="y" unicode="y" 
d="M170 -341v171h342v-171h-342zM512 -170v340h-171v512h171v-341h170v-511h-170zM682 341v341h171v-341h-171zM170 682v342h171v-342h-171zM853 682v342h171v-342h-171z" />
    <glyph glyph-name="z" unicode="z" 
d="M170 0v341h171v-171h512v-170h-683zM341 341v171h171v-171h-171zM512 512v170h170v-170h-170zM682 682v171h-512v171h683v-342h-171z" />
    <glyph glyph-name="braceleft" unicode="{" 
d="M512 -341v171h341v-171h-341zM341 -170v682h171v-682h-171zM170 512v170h171v-170h-171zM341 682v512h171v-512h-171zM512 1194v171h341v-171h-341z" />
    <glyph glyph-name="bar" unicode="|" horiz-adv-x="853" 
d="M341 -341v1706h171v-1706h-171z" />
    <glyph glyph-name="braceright" unicode="}" 
d="M170 -341v171h342v-171h-342zM512 -170v682h170v-682h-170zM682 512v170h171v-170h-171zM512 682v512h170v-512h-170zM170 1194v171h342v-171h-342z" />
    <glyph glyph-name="asciitilde" unicode="~" 
d="M0 682v171h170v-171h-170zM512 682v171h170v-171h-170zM170 853v171h342v-171h-342zM682 853v171h171v-171h-171z" />
    <glyph glyph-name="exclamdown" unicode="&#xa1;" 
d="M341 -170v1023h171v-1023h-171zM341 1024v170h171v-170h-171z" />
    <glyph glyph-name="copyright" unicode="&#xa9;" 
d="M170 0v170h683v-170h-683zM341 341v512h341v-171h-170v-170h170v-171h-341zM0 170v854h170v-854h-170zM853 170v854h171v-854h-171zM170 1024v170h683v-170h-683z" />
    <glyph glyph-name="guillemotleft" unicode="&#xab;" horiz-adv-x="1194" 
d="M341 0v170h171v-170h-171zM853 0v170h171v-170h-171zM170 170v171h171v-171h-171zM682 170v171h171v-171h-171zM0 341v171h170v-171h-170zM512 341v171h170v-171h-170zM170 512v170h171v-170h-171zM682 512v170h171v-170h-171zM341 682v171h171v-171h-171zM853 682v171
h171v-171h-171z" />
    <glyph glyph-name="logicalnot" unicode="&#xac;" 
d="M0 512v170h1024v-170h-1024z" />
    <glyph glyph-name="uni00AD" unicode="&#xad;" 
 />
    <glyph glyph-name="guillemotright" unicode="&#xbb;" 
d="M0 0v170h170v-170h-170zM512 0v170h170v-170h-170zM170 170v171h171v-171h-171zM682 170v171h171v-171h-171zM341 341v171h171v-171h-171zM853 341v171h171v-171h-171zM170 512v170h171v-170h-171zM682 512v170h171v-170h-171zM0 682v171h170v-171h-170zM512 682v171h170
v-171h-170z" />
    <glyph glyph-name="questiondown" unicode="&#xbf;" 
d="M341 -170v170h341v-170h-341zM682 0v170h171v-170h-171zM170 0v341h171v-341h-171zM341 341v512h171v-512h-171zM341 1024v170h171v-170h-171z" />
    <glyph glyph-name="Agrave" unicode="&#xc0;" 
d="M0 0v341h170v-341h-170zM682 0v341h-512v512h171v-341h171v341h170v-341h171v-512h-171zM341 853v512h171v-512h-171zM170 1536v170h-170v171h341v-171h171v-170h-342z" />
    <glyph glyph-name="Aacute" unicode="&#xc1;" 
d="M0 0v341h170v-341h-170zM682 0v341h-512v512h171v-341h171v341h170v-341h171v-512h-171zM341 853v512h171v-512h-171zM341 1536v170h171v171h341v-171h-171v-170h-341z" />
    <glyph glyph-name="Acircumflex" unicode="&#xc2;" 
d="M0 0v341h170v-341h-170zM682 0v341h-512v512h171v-341h171v341h170v-341h171v-512h-171zM341 853v512h171v-512h-171zM170 1536v170h171v-170h-171zM512 1536v170h170v-170h-170zM341 1706v171h171v-171h-171z" />
    <glyph glyph-name="Atilde" unicode="&#xc3;" 
d="M0 0v341h170v-341h-170zM682 0v341h-512v512h171v-341h171v341h170v-341h171v-512h-171zM341 853v512h171v-512h-171zM0 1536v170h170v-170h-170zM512 1536v170h170v-170h-170zM170 1706v171h342v-171h-342zM682 1706v171h171v-171h-171z" />
    <glyph glyph-name="Adieresis" unicode="&#xc4;" 
d="M0 0v341h170v-341h-170zM682 0v341h-512v512h171v-341h171v341h170v-341h171v-512h-171zM341 853v512h171v-512h-171zM170 1536v170h171v-170h-171zM512 1536v170h170v-170h-170z" />
    <glyph glyph-name="Aring" unicode="&#xc5;" 
d="M0 0v341h170v-341h-170zM682 0v341h-512v512h171v-341h171v341h170v-341h171v-512h-171zM341 853v512h171v-512h-171zM170 1365v341h171v-341h-171zM512 1365v341h170v-341h-170zM341 1706v171h171v-171h-171z" />
    <glyph glyph-name="AE" unicode="&#xc6;" 
d="M0 0v341h170v-341h-170zM512 0v341h-342v683h171v-512h171v512h-171v341h683v-171h-342v-341h171v-171h-171v-512h342v-170h-512z" />
    <glyph glyph-name="Ccedilla" unicode="&#xc7;" 
d="M170 -341v171h342v-171h-342zM512 -170v170h-342v170h512v-340h-170zM682 170v171h171v-171h-171zM0 170v1024h170v-1024h-170zM682 1024v170h171v-170h-171zM170 1194v171h512v-171h-512z" />
    <glyph glyph-name="Egrave" unicode="&#xc8;" 
d="M0 0v1365h853v-171h-683v-341h512v-171h-512v-512h683v-170h-853zM170 1536v170h-170v171h341v-171h171v-170h-342z" />
    <glyph glyph-name="Eacute" unicode="&#xc9;" 
d="M0 0v1365h853v-171h-683v-341h512v-171h-512v-512h683v-170h-853zM341 1536v170h171v171h341v-171h-171v-170h-341z" />
    <glyph glyph-name="Ecircumflex" unicode="&#xca;" 
d="M0 0v1365h853v-171h-683v-341h512v-171h-512v-512h683v-170h-853zM170 1536v170h171v-170h-171zM512 1536v170h170v-170h-170zM341 1706v171h171v-171h-171z" />
    <glyph glyph-name="Edieresis" unicode="&#xcb;" 
d="M0 0v1365h853v-171h-683v-341h512v-171h-512v-512h683v-170h-853zM170 1536v170h171v-170h-171zM512 1536v170h170v-170h-170z" />
    <glyph glyph-name="Igrave" unicode="&#xcc;" 
d="M341 0v170h171v1024h-171v171h512v-171h-171v-1024h171v-170h-512zM341 1536v170h-171v171h342v-171h170v-170h-341z" />
    <glyph glyph-name="Iacute" unicode="&#xcd;" 
d="M341 0v170h171v1024h-171v171h512v-171h-171v-1024h171v-170h-512zM512 1536v170h170v171h342v-171h-171v-170h-341z" />
    <glyph glyph-name="Icircumflex" unicode="&#xce;" 
d="M341 0v170h171v1024h-171v171h512v-171h-171v-1024h171v-170h-512zM341 1536v170h171v-170h-171zM682 1536v170h171v-170h-171zM512 1706v171h170v-171h-170z" />
    <glyph glyph-name="Idieresis" unicode="&#xcf;" 
d="M341 0v170h171v1024h-171v171h512v-171h-171v-1024h171v-170h-512zM341 1536v170h171v-170h-171zM682 1536v170h171v-170h-171z" />
    <glyph glyph-name="Eth" unicode="&#xd0;" 
d="M682 170v171h171v-171h-171zM853 341v683h171v-683h-171zM682 1024v170h171v-170h-171zM170 0v682h-170v171h170v512h512v-171h-341v-341h171v-171h-171v-512h341v-170h-512z" />
    <glyph glyph-name="Ntilde" unicode="&#xd1;" 
d="M341 512v341h171v-341h-171zM0 0v1365h170v-171h171v-341h-171v-853h-170zM682 0v170h-170v342h170v853h171v-1365h-171zM0 1536v170h170v-170h-170zM512 1536v170h170v-170h-170zM170 1706v171h342v-171h-342zM682 1706v171h171v-171h-171z" />
    <glyph glyph-name="Ograve" unicode="&#xd2;" 
d="M170 0v170h512v-170h-512zM0 170v1024h170v-1024h-170zM682 170v1024h171v-1024h-171zM170 1194v171h512v-171h-512zM170 1536v170h-170v171h341v-171h171v-170h-342z" />
    <glyph glyph-name="Oacute" unicode="&#xd3;" 
d="M170 0v170h512v-170h-512zM0 170v1024h170v-1024h-170zM682 170v1024h171v-1024h-171zM170 1194v171h512v-171h-512zM341 1536v170h171v171h341v-171h-171v-170h-341z" />
    <glyph glyph-name="Ocircumflex" unicode="&#xd4;" 
d="M170 0v170h512v-170h-512zM0 170v1024h170v-1024h-170zM682 170v1024h171v-1024h-171zM170 1194v171h512v-171h-512zM170 1536v170h171v-170h-171zM512 1536v170h170v-170h-170zM341 1706v171h171v-171h-171z" />
    <glyph glyph-name="Otilde" unicode="&#xd5;" 
d="M170 0v170h512v-170h-512zM0 170v1024h170v-1024h-170zM682 170v1024h171v-1024h-171zM170 1194v171h512v-171h-512zM0 1536v170h170v-170h-170zM512 1536v170h170v-170h-170zM170 1706v171h342v-171h-342zM682 1706v171h171v-171h-171z" />
    <glyph glyph-name="Odieresis" unicode="&#xd6;" 
d="M170 0v170h512v-170h-512zM0 170v1024h170v-1024h-170zM682 170v1024h171v-1024h-171zM170 1194v171h512v-171h-512zM170 1536v170h171v-170h-171zM512 1536v170h170v-170h-170z" />
    <glyph glyph-name="Oslash" unicode="&#xd8;" 
d="M341 341v683h171v-683h-171zM170 0v170h-170v1024h170v-853h171v-171h341v-170h-512zM682 170v854h-170v170h-342v171h512v-171h171v-1024h-171z" />
    <glyph glyph-name="Ugrave" unicode="&#xd9;" 
d="M170 0v170h512v-170h-512zM0 170v1195h170v-1195h-170zM682 170v1195h171v-1195h-171zM170 1536v170h-170v171h341v-171h171v-170h-342z" />
    <glyph glyph-name="Uacute" unicode="&#xda;" 
d="M170 0v170h512v-170h-512zM0 170v1195h170v-1195h-170zM682 170v1195h171v-1195h-171zM341 1536v170h171v171h341v-171h-171v-170h-341z" />
    <glyph glyph-name="Ucircumflex" unicode="&#xdb;" 
d="M170 0v170h512v-170h-512zM0 170v1195h170v-1195h-170zM682 170v1195h171v-1195h-171zM170 1536v170h171v-170h-171zM512 1536v170h170v-170h-170zM341 1706v171h171v-171h-171z" />
    <glyph glyph-name="Udieresis" unicode="&#xdc;" 
d="M170 0v170h512v-170h-512zM0 170v1195h170v-1195h-170zM682 170v1195h171v-1195h-171zM170 1536v170h171v-170h-171zM512 1536v170h170v-170h-170z" />
    <glyph glyph-name="Yacute" unicode="&#xdd;" 
d="M341 0v682h171v-682h-171zM170 682v342h171v-342h-171zM512 682v342h170v-342h-170zM0 1024v341h170v-341h-170zM682 1024v341h171v-341h-171zM341 1536v170h171v171h341v-171h-171v-170h-341z" />
    <glyph glyph-name="Thorn" unicode="&#xde;" 
d="M682 512v512h171v-512h-171zM0 0v1365h170v-171h512v-170h-512v-512h512v-171h-512v-341h-170z" />
    <glyph glyph-name="germandbls" unicode="&#xdf;" 
d="M341 0v170h341v-170h-341zM682 170v342h171v-342h-171zM512 512v170h170v-170h-170zM341 682v171h171v-171h-171zM0 0v1194h170v-1194h-170zM512 853v341h170v-341h-170zM170 1194v171h342v-171h-342z" />
    <glyph glyph-name="agrave" unicode="&#xe0;" 
d="M170 170v342h171v-342h-171zM341 0v170h341v342h-341v170h341v171h171v-853h-512zM170 853v171h512v-171h-512zM341 1194v171h-171v171h342v-171h170v-171h-341z" />
    <glyph glyph-name="aacute" unicode="&#xe1;" 
d="M170 170v342h171v-342h-171zM341 0v170h341v342h-341v170h341v171h171v-853h-512zM170 853v171h512v-171h-512zM341 1194v171h171v171h341v-171h-171v-171h-341z" />
    <glyph glyph-name="acircumflex" unicode="&#xe2;" 
d="M170 170v342h171v-342h-171zM341 0v170h341v342h-341v170h341v171h171v-853h-512zM170 853v171h512v-171h-512zM170 1194v171h171v-171h-171zM682 1194v171h171v-171h-171zM341 1365v171h341v-171h-341z" />
    <glyph glyph-name="atilde" unicode="&#xe3;" 
d="M170 170v342h171v-342h-171zM341 0v170h341v342h-341v170h341v171h171v-853h-512zM170 853v171h512v-171h-512zM170 1194v171h171v-171h-171zM512 1194v171h170v-171h-170zM341 1365v171h171v-171h-171zM682 1365v171h171v-171h-171z" />
    <glyph glyph-name="adieresis" unicode="&#xe4;" 
d="M170 170v342h171v-342h-171zM341 0v170h341v342h-341v170h341v171h171v-853h-512zM170 853v171h512v-171h-512zM170 1194v171h171v-171h-171zM512 1194v171h170v-171h-170z" />
    <glyph glyph-name="aring" unicode="&#xe5;" 
d="M170 170v342h171v-342h-171zM341 0v170h341v342h-341v170h341v171h171v-853h-512zM170 853v171h171v170h171v-170h170v-171h-512zM170 1194v171h171v-171h-171zM512 1194v171h170v-171h-170zM341 1365v171h171v-171h-171z" />
    <glyph glyph-name="ae" unicode="&#xe6;" 
d="M0 170v342h170v-342h-170zM170 0v170h171v342h-171v170h171v171h171v-171h170v171h171v-341h-341v-342h341v-170h-683zM0 853v171h341v-171h-341zM512 853v171h170v-171h-170z" />
    <glyph glyph-name="ccedilla" unicode="&#xe7;" 
d="M341 -341v171h171v170h-171v170h512v-170h-171v-341h-341zM170 170v683h171v-683h-171zM341 853v171h512v-171h-512z" />
    <glyph glyph-name="egrave" unicode="&#xe8;" 
d="M341 0v170h512v-170h-512zM170 170v683h171v-171h341v171h171v-341h-512v-342h-171zM341 853v171h341v-171h-341zM341 1194v171h-171v171h342v-171h170v-171h-341z" />
    <glyph glyph-name="eacute" unicode="&#xe9;" 
d="M341 0v170h512v-170h-512zM170 170v683h171v-171h341v171h171v-341h-512v-342h-171zM341 853v171h341v-171h-341zM341 1194v171h171v171h341v-171h-171v-171h-341z" />
    <glyph glyph-name="ecircumflex" unicode="&#xea;" 
d="M341 0v170h512v-170h-512zM170 170v683h171v-171h341v171h171v-341h-512v-342h-171zM341 853v171h341v-171h-341zM170 1194v171h171v-171h-171zM682 1194v171h171v-171h-171zM341 1365v171h341v-171h-341z" />
    <glyph glyph-name="edieresis" unicode="&#xeb;" 
d="M341 0v170h512v-170h-512zM170 170v683h171v-171h341v171h171v-341h-512v-342h-171zM341 853v171h341v-171h-341zM341 1194v171h171v-171h-171zM682 1194v171h171v-171h-171z" />
    <glyph glyph-name="igrave" unicode="&#xec;" 
d="M341 0v170h171v683h-171v171h341v-854h171v-170h-512zM341 1194v171h-171v171h342v-171h170v-171h-341z" />
    <glyph glyph-name="iacute" unicode="&#xed;" 
d="M341 0v170h171v683h-171v171h341v-854h171v-170h-512zM341 1194v171h171v171h341v-171h-171v-171h-341z" />
    <glyph glyph-name="icircumflex" unicode="&#xee;" 
d="M341 0v170h171v683h-171v171h341v-854h171v-170h-512zM341 1194v171h171v-171h-171zM682 1194v171h171v-171h-171zM512 1365v171h170v-171h-170z" />
    <glyph glyph-name="idieresis" unicode="&#xef;" 
d="M341 0v170h171v683h-171v171h341v-854h171v-170h-512zM341 1194v171h171v-171h-171zM682 1194v171h171v-171h-171z" />
    <glyph glyph-name="eth" unicode="&#xf0;" 
d="M341 0v170h341v-170h-341zM170 170v342h171v-342h-171zM341 853v171h171v-171h-171zM682 170v342h-341v170h341v342h171v-854h-171zM512 1024v170h170v-170h-170zM170 1194v171h342v-171h-342zM682 1194v171h171v-171h-171z" />
    <glyph glyph-name="ntilde" unicode="&#xf1;" 
d="M682 0v853h171v-853h-171zM170 0v1024h512v-171h-341v-853h-171zM170 1194v171h171v-171h-171zM512 1194v171h170v-171h-170zM341 1365v171h171v-171h-171zM682 1365v171h171v-171h-171z" />
    <glyph glyph-name="ograve" unicode="&#xf2;" 
d="M341 0v170h341v-170h-341zM170 170v683h171v-683h-171zM682 170v683h171v-683h-171zM341 853v171h341v-171h-341zM341 1194v171h-171v171h342v-171h170v-171h-341z" />
    <glyph glyph-name="oacute" unicode="&#xf3;" 
d="M341 0v170h341v-170h-341zM170 170v683h171v-683h-171zM682 170v683h171v-683h-171zM341 853v171h341v-171h-341zM341 1194v171h171v171h341v-171h-171v-171h-341z" />
    <glyph glyph-name="ocircumflex" unicode="&#xf4;" 
d="M341 0v170h341v-170h-341zM170 170v683h171v-683h-171zM682 170v683h171v-683h-171zM341 853v171h341v-171h-341zM170 1194v171h171v-171h-171zM682 1194v171h171v-171h-171zM341 1365v171h341v-171h-341z" />
    <glyph glyph-name="otilde" unicode="&#xf5;" 
d="M341 0v170h341v-170h-341zM170 170v683h171v-683h-171zM682 170v683h171v-683h-171zM341 853v171h341v-171h-341zM170 1194v171h171v-171h-171zM512 1194v171h170v-171h-170zM341 1365v171h171v-171h-171zM682 1365v171h171v-171h-171z" />
    <glyph glyph-name="odieresis" unicode="&#xf6;" 
d="M341 0v170h341v-170h-341zM170 170v683h171v-683h-171zM682 170v683h171v-683h-171zM341 853v171h341v-171h-341zM341 1194v171h171v-171h-171zM682 1194v171h171v-171h-171z" />
    <glyph glyph-name="oslash" unicode="&#xf8;" 
d="M0 0v170h170v-170h-170zM341 0v170h341v-170h-341zM170 170v683h171v-341h171v-171h-171v-171h-171zM682 170v342h-170v170h170v171h171v-683h-171zM341 853v171h341v-171h-341zM853 853v171h171v-171h-171z" />
    <glyph glyph-name="ugrave" unicode="&#xf9;" 
d="M170 170v854h171v-854h-171zM341 0v170h341v854h171v-1024h-512zM341 1194v171h-171v171h342v-171h170v-171h-341z" />
    <glyph glyph-name="uacute" unicode="&#xfa;" 
d="M170 170v854h171v-854h-171zM341 0v170h341v854h171v-1024h-512zM341 1194v171h171v171h341v-171h-171v-171h-341z" />
    <glyph glyph-name="ucircumflex" unicode="&#xfb;" 
d="M170 170v854h171v-854h-171zM341 0v170h341v854h171v-1024h-512zM170 1194v171h171v-171h-171zM682 1194v171h171v-171h-171zM341 1365v171h341v-171h-341z" />
    <glyph glyph-name="udieresis" unicode="&#xfc;" 
d="M170 170v854h171v-854h-171zM341 0v170h341v854h171v-1024h-512zM341 1194v171h171v-171h-171zM682 1194v171h171v-171h-171z" />
    <glyph glyph-name="yacute" unicode="&#xfd;" 
d="M0 -341v171h341v-171h-341zM341 -170v340h-171v512h171v-341h171v-511h-171zM512 341v341h170v-341h-170zM0 682v342h170v-342h-170zM682 682v342h171v-342h-171zM341 1194v171h171v171h341v-171h-171v-171h-341z" />
    <glyph glyph-name="thorn" unicode="&#xfe;" 
d="M682 341v341h171v-341h-171zM170 -341v1706h171v-512h341v-171h-341v-341h341v-171h-341v-511h-171z" />
    <glyph glyph-name="ydieresis" unicode="&#xff;" 
d="M0 -341v171h341v-171h-341zM341 -170v340h-171v512h171v-341h171v-511h-171zM512 341v341h170v-341h-170zM0 682v342h170v-342h-170zM682 682v342h171v-342h-171zM170 1194v171h171v-171h-171zM512 1194v171h170v-171h-170z" />
    <glyph glyph-name="Ydieresis" unicode="&#x178;" 
d="M341 0v682h171v-682h-171zM170 682v342h171v-342h-171zM512 682v342h170v-342h-170zM0 1024v341h170v-341h-170zM682 1024v341h171v-341h-171zM170 1536v170h171v-170h-171zM512 1536v170h170v-170h-170z" />
    <glyph glyph-name="uni0401" unicode="&#x401;" 
d="M0 0v1365h853v-171h-683v-341h512v-171h-512v-512h683v-170h-853zM170 1536v170h171v-170h-171zM512 1536v170h170v-170h-170z" />
    <glyph glyph-name="uni0402" unicode="&#x402;" horiz-adv-x="1194" 
d="M682 -170v170h171v-170h-171zM853 0v853h171v-853h-171zM341 0v1194h-341v171h853v-171h-341v-170h341v-171h-341v-853h-171z" />
    <glyph glyph-name="uni0404" unicode="&#x404;" 
d="M170 0v170h512v-170h-512zM682 170v171h171v-171h-171zM0 170v1024h170v-341h342v-171h-342v-512h-170zM682 1024v170h171v-170h-171zM170 1194v171h512v-171h-512z" />
    <glyph glyph-name="uni0405" unicode="&#x405;" 
d="M170 0v170h512v-170h-512zM0 170v171h170v-171h-170zM682 170v342h171v-342h-171zM512 512v170h170v-170h-170zM170 682v171h342v-171h-342zM0 853v341h170v-341h-170zM682 1024v170h171v-170h-171zM170 1194v171h512v-171h-512z" />
    <glyph glyph-name="uni0406" unicode="&#x406;" horiz-adv-x="853" 
d="M170 0v170h171v1024h-171v171h512v-171h-170v-1024h170v-170h-512z" />
    <glyph glyph-name="uni0407" unicode="&#x407;" horiz-adv-x="853" 
d="M170 0v170h171v1024h-171v171h512v-171h-170v-1024h170v-170h-512zM170 1536v170h171v-170h-171zM512 1536v170h170v-170h-170z" />
    <glyph glyph-name="uni0408" unicode="&#x408;" 
d="M170 0v170h342v-170h-342zM0 170v171h170v-171h-170zM512 170v1024h-342v171h683v-171h-171v-1024h-170z" />
    <glyph glyph-name="uni0409" unicode="&#x409;" 
d="M0 0v682h170v-682h-170zM853 170v512h171v-512h-171zM170 682v512h171v-512h-171zM512 0v1194h-171v171h341v-512h171v-171h-171v-512h171v-170h-341z" />
    <glyph glyph-name="uni040A" unicode="&#x40a;" 
d="M853 170v512h171v-512h-171zM0 0v1365h170v-512h342v512h170v-512h171v-171h-171v-512h171v-170h-341v682h-342v-682h-170z" />
    <glyph glyph-name="uni040B" unicode="&#x40b;" horiz-adv-x="1194" 
d="M853 0v682h171v-682h-171zM341 0v1194h-341v171h853v-171h-341v-341h341v-171h-341v-682h-171z" />
    <glyph glyph-name="uni040E" unicode="&#x40e;" 
d="M0 0v170h341v-170h-341zM341 170v512h171v-512h-171zM170 682v342h171v-342h-171zM512 682v342h170v-342h-170zM0 1024v341h170v-341h-170zM682 1024v341h171v-341h-171zM341 1536v170h341v-170h-341zM170 1706v171h171v-171h-171zM682 1706v171h171v-171h-171z" />
    <glyph glyph-name="uni040F" unicode="&#x40f;" horiz-adv-x="1194" 
d="M512 -341v341h-342v1365h171v-1195h512v1195h171v-1365h-342v-341h-170z" />
    <glyph glyph-name="uni0410" unicode="&#x410;" horiz-adv-x="1194" 
d="M170 0v341h171v-341h-171zM853 0v341h-512v512h171v-341h170v341h171v-341h171v-512h-171zM512 853v512h170v-512h-170z" />
    <glyph glyph-name="uni0411" unicode="&#x411;" horiz-adv-x="1194" 
d="M853 170v512h171v-512h-171zM170 0v1365h683v-171h-512v-341h512v-171h-512v-512h512v-170h-683z" />
    <glyph glyph-name="uni0412" unicode="&#x412;" horiz-adv-x="1194" 
d="M853 170v512h171v-512h-171zM853 853v341h171v-341h-171zM170 0v1365h683v-171h-512v-341h512v-171h-512v-512h512v-170h-683z" />
    <glyph glyph-name="uni0413" unicode="&#x413;" 
d="M170 0v1365h854v-171h-683v-1194h-171z" />
    <glyph glyph-name="uni0414" unicode="&#x414;" 
d="M341 853v341h171v-341h-171zM0 -170v340h170v683h171v-683h341v1024h-170v171h341v-1195h171v-340h-171v170h-683v-170h-170z" />
    <glyph glyph-name="uni0415" unicode="&#x415;" horiz-adv-x="1194" 
d="M170 0v1365h854v-171h-683v-341h512v-171h-512v-512h683v-170h-854z" />
    <glyph glyph-name="uni0416" unicode="&#x416;" horiz-adv-x="1194" 
d="M170 0v682h171v-682h-171zM853 0v682h171v-682h-171zM170 853v512h171v-512h-171zM512 0v682h-171v171h171v512h170v-512h171v-171h-171v-682h-170zM853 853v512h171v-512h-171z" />
    <glyph glyph-name="uni0417" unicode="&#x417;" horiz-adv-x="1194" 
d="M341 0v170h512v-170h-512zM170 170v171h171v-171h-171zM853 170v512h171v-512h-171zM512 682v171h341v-171h-341zM170 1024v170h171v-170h-171zM853 853v341h171v-341h-171zM341 1194v171h512v-171h-512z" />
    <glyph glyph-name="uni0418" unicode="&#x418;" horiz-adv-x="1194" 
d="M512 512v341h170v-341h-170zM170 0v1365h171v-853h171v-342h-171v-170h-171zM853 0v853h-171v341h171v171h171v-1365h-171z" />
    <glyph glyph-name="uni0419" unicode="&#x419;" horiz-adv-x="1194" 
d="M512 512v341h170v-341h-170zM170 0v1365h171v-853h171v-342h-171v-170h-171zM853 0v853h-171v341h171v171h171v-1365h-171zM512 1536v170h341v-170h-341zM341 1706v171h171v-171h-171zM853 1706v171h171v-171h-171z" />
    <glyph glyph-name="uni041A" unicode="&#x41a;" horiz-adv-x="1194" 
d="M853 0v170h171v-170h-171zM682 170v342h171v-342h-171zM512 512v170h170v-170h-170zM512 853v171h170v-171h-170zM682 1024v170h171v-170h-171zM170 0v1365h171v-512h171v-171h-171v-682h-171zM853 1194v171h171v-171h-171z" />
    <glyph glyph-name="uni041B" unicode="&#x41b;" 
d="M0 0v170h170v-170h-170zM170 170v683h171v-683h-171zM341 853v341h171v-341h-171zM682 0v1194h-170v171h341v-1365h-171z" />
    <glyph glyph-name="uni041C" unicode="&#x41c;" horiz-adv-x="1194" 
d="M512 512v341h170v-341h-170zM170 0v1365h171v-171h171v-341h-171v-853h-171zM853 0v853h-171v341h171v171h171v-1365h-171z" />
    <glyph glyph-name="uni041D" unicode="&#x41d;" horiz-adv-x="1194" 
d="M170 0v1365h171v-512h512v512h171v-1365h-171v682h-512v-682h-171z" />
    <glyph glyph-name="uni041E" unicode="&#x41e;" horiz-adv-x="1194" 
d="M341 0v170h512v-170h-512zM170 170v1024h171v-1024h-171zM853 170v1024h171v-1024h-171zM341 1194v171h512v-171h-512z" />
    <glyph glyph-name="uni041F" unicode="&#x41f;" horiz-adv-x="1194" 
d="M170 0v1365h854v-1365h-171v1194h-512v-1194h-171z" />
    <glyph glyph-name="uni0420" unicode="&#x420;" 
d="M853 853v341h171v-341h-171zM170 0v1365h683v-171h-512v-341h512v-171h-512v-682h-171z" />
    <glyph glyph-name="uni0421" unicode="&#x421;" horiz-adv-x="1194" 
d="M341 0v170h512v-170h-512zM853 170v171h171v-171h-171zM170 170v1024h171v-1024h-171zM853 1024v170h171v-170h-171zM341 1194v171h512v-171h-512z" />
    <glyph glyph-name="uni0422" unicode="&#x422;" horiz-adv-x="853" 
d="M341 0v1194h-341v171h853v-171h-341v-1194h-171z" />
    <glyph glyph-name="uni0423" unicode="&#x423;" 
d="M170 0v170h342v-170h-342zM512 170v512h170v-512h-170zM341 682v342h171v-342h-171zM682 682v342h171v-342h-171zM170 1024v341h171v-341h-171zM853 1024v341h171v-341h-171z" />
    <glyph glyph-name="uni0424" unicode="&#x424;" horiz-adv-x="1194" 
d="M170 341v853h171v-853h-171zM853 341v853h171v-853h-171zM512 0v170h-171v171h171v853h-171v171h512v-171h-171v-853h171v-171h-171v-170h-170z" />
    <glyph glyph-name="uni0425" unicode="&#x425;" horiz-adv-x="1194" 
d="M170 0v170h171v-170h-171zM853 0v170h171v-170h-171zM341 170v342h171v-342h-171zM682 170v342h171v-342h-171zM512 512v341h170v-341h-170zM341 853v341h171v-341h-171zM682 853v341h171v-341h-171zM170 1194v171h171v-171h-171zM853 1194v171h171v-171h-171z" />
    <glyph glyph-name="uni0426" unicode="&#x426;" horiz-adv-x="1194" 
d="M1024 -170v170h-854v1365h171v-1195h512v1195h171v-1195h170v-340h-170z" />
    <glyph glyph-name="uni0427" unicode="&#x427;" horiz-adv-x="1194" 
d="M170 682v683h171v-683h-171zM853 0v512h-512v170h512v683h171v-1365h-171z" />
    <glyph glyph-name="uni0428" unicode="&#x428;" horiz-adv-x="1194" 
d="M170 0v1365h171v-1195h171v1024h170v-1024h171v1195h171v-1365h-854z" />
    <glyph glyph-name="uni0429" unicode="&#x429;" horiz-adv-x="1194" 
d="M1024 -170v170h-854v1365h171v-1195h171v1024h170v-1024h171v1195h171v-1195h170v-340h-170z" />
    <glyph glyph-name="uni042A" unicode="&#x42a;" 
d="M682 170v512h171v-512h-171zM170 0v1194h-170v171h341v-512h341v-171h-341v-512h341v-170h-512z" />
    <glyph glyph-name="uni042B" unicode="&#x42b;" horiz-adv-x="1365" 
d="M682 170v512h171v-512h-171zM170 0v1365h171v-512h341v-171h-341v-512h341v-170h-512zM1024 0v1365h170v-1365h-170z" />
    <glyph glyph-name="uni042C" unicode="&#x42c;" 
d="M682 170v512h171v-512h-171zM170 0v1365h171v-512h341v-171h-341v-512h341v-170h-512z" />
    <glyph glyph-name="uni042D" unicode="&#x42d;" horiz-adv-x="1194" 
d="M341 0v170h512v-170h-512zM170 170v171h171v-171h-171zM170 1024v170h171v-170h-171zM853 170v512h-341v171h341v341h171v-1024h-171zM341 1194v171h512v-171h-512z" />
    <glyph glyph-name="uni042E" unicode="&#x42e;" horiz-adv-x="1365" 
d="M682 0v170h342v-170h-342zM1024 170v1024h170v-1024h-170zM170 0v1365h171v-512h171v341h170v-1024h-170v512h-171v-682h-171zM682 1194v171h342v-171h-342z" />
    <glyph glyph-name="uni042F" unicode="&#x42f;" horiz-adv-x="1194" 
d="M170 0v170h171v-170h-171zM341 170v342h171v-342h-171zM170 853v341h171v-341h-171zM853 0v682h-171v-170h-170v170h-171v171h512v341h-512v171h683v-1365h-171z" />
    <glyph glyph-name="uni0430" unicode="&#x430;" 
d="M170 170v342h171v-342h-171zM341 0v170h341v342h-341v170h341v171h171v-853h-512zM341 853v171h341v-171h-341z" />
    <glyph glyph-name="uni0431" unicode="&#x431;" 
d="M341 0v170h341v-170h-341zM682 170v683h171v-683h-171zM170 170v1024h171v-170h341v-171h-341v-683h-171zM341 1194v171h512v-171h-512z" />
    <glyph glyph-name="uni0432" unicode="&#x432;" 
d="M682 170v342h171v-342h-171zM682 682v171h171v-171h-171zM170 0v1024h512v-171h-341v-171h341v-170h-341v-342h341v-170h-512z" />
    <glyph glyph-name="uni0433" unicode="&#x433;" horiz-adv-x="853" 
d="M170 0v1024h683v-171h-512v-853h-171z" />
    <glyph glyph-name="uni0434" unicode="&#x434;" 
d="M341 682v171h171v-171h-171zM0 -170v340h170v512h171v-512h341v683h-170v171h341v-854h171v-340h-171v170h-683v-170h-170z" />
    <glyph glyph-name="uni0435" unicode="&#x435;" 
d="M341 0v170h512v-170h-512zM170 170v683h171v-171h341v171h171v-341h-512v-342h-171zM341 853v171h341v-171h-341z" />
    <glyph glyph-name="uni0436" unicode="&#x436;" horiz-adv-x="1194" 
d="M170 0v512h171v-512h-171zM853 0v512h171v-512h-171zM170 682v342h171v-342h-171zM512 0v512h-171v170h171v342h170v-342h171v-170h-171v-512h-170zM853 682v342h171v-342h-171z" />
    <glyph glyph-name="uni0437" unicode="&#x437;" 
d="M170 0v170h512v-170h-512zM682 170v342h171v-342h-171zM341 512v170h341v-170h-341zM682 682v171h171v-171h-171zM170 853v171h512v-171h-512z" />
    <glyph glyph-name="uni0438" unicode="&#x438;" 
d="M170 0v1024h171v-512h171v-342h-171v-170h-171zM682 0v512h-170v170h170v342h171v-1024h-171z" />
    <glyph glyph-name="uni0439" unicode="&#x439;" 
d="M170 0v1024h171v-512h171v-342h-171v-170h-171zM682 0v512h-170v170h170v342h171v-1024h-171zM341 1194v171h341v-171h-341zM170 1365v171h171v-171h-171zM682 1365v171h171v-171h-171z" />
    <glyph glyph-name="uni043A" unicode="&#x43a;" 
d="M682 0v170h171v-170h-171zM512 170v342h170v-342h-170zM512 682v171h170v-171h-170zM170 0v1024h171v-342h171v-170h-171v-512h-171zM682 853v171h171v-171h-171z" />
    <glyph glyph-name="uni043B" unicode="&#x43b;" 
d="M0 0v170h170v-170h-170zM170 170v512h171v-512h-171zM341 682v171h171v-171h-171zM682 0v853h-170v171h341v-1024h-171z" />
    <glyph glyph-name="uni043C" unicode="&#x43c;" horiz-adv-x="1194" 
d="M512 170v342h170v-342h-170zM170 0v1024h171v-171h171v-341h-171v-512h-171zM853 0v512h-171v341h171v171h171v-1024h-171z" />
    <glyph glyph-name="uni043D" unicode="&#x43d;" 
d="M170 0v1024h171v-342h341v342h171v-1024h-171v512h-341v-512h-171z" />
    <glyph glyph-name="uni043E" unicode="&#x43e;" 
d="M341 0v170h341v-170h-341zM170 170v683h171v-683h-171zM682 170v683h171v-683h-171zM341 853v171h341v-171h-341z" />
    <glyph glyph-name="uni043F" unicode="&#x43f;" 
d="M170 0v1024h683v-1024h-171v853h-341v-853h-171z" />
    <glyph glyph-name="uni0440" unicode="&#x440;" 
d="M682 170v683h171v-683h-171zM170 -341v1365h512v-171h-341v-683h341v-170h-341v-341h-171z" />
    <glyph glyph-name="uni0441" unicode="&#x441;" 
d="M341 0v170h341v-170h-341zM682 170v171h171v-171h-171zM170 170v683h171v-683h-171zM682 682v171h171v-171h-171zM341 853v171h341v-171h-341z" />
    <glyph glyph-name="uni0442" unicode="&#x442;" horiz-adv-x="853" 
d="M341 0v853h-341v171h853v-171h-341v-853h-171z" />
    <glyph glyph-name="uni0443" unicode="&#x443;" 
d="M170 -341v171h342v-171h-342zM512 -170v511h170v-511h-170zM341 341v341h171v-341h-171zM682 341v341h171v-341h-171zM170 682v342h171v-342h-171zM853 682v342h171v-342h-171z" />
    <glyph glyph-name="uni0444" unicode="&#x444;" horiz-adv-x="1194" 
d="M170 170v683h171v-683h-171zM853 170v683h171v-683h-171zM512 -341v341h-171v170h171v683h-171v171h171v341h170v-341h171v-171h-171v-683h171v-170h-171v-341h-170z" />
    <glyph glyph-name="uni0445" unicode="&#x445;" 
d="M0 0v170h170v-170h-170zM682 0v170h171v-170h-171zM170 170v171h171v-171h-171zM512 170v171h170v-171h-170zM341 341v341h171v-341h-171zM170 682v171h171v-171h-171zM512 682v171h170v-171h-170zM0 853v171h170v-171h-170zM682 853v171h171v-171h-171z" />
    <glyph glyph-name="uni0446" unicode="&#x446;" 
d="M853 -170v170h-683v1024h171v-854h341v854h171v-854h171v-340h-171z" />
    <glyph glyph-name="uni0447" unicode="&#x447;" 
d="M170 512v512h171v-512h-171zM682 0v341h-341v171h341v512h171v-1024h-171z" />
    <glyph glyph-name="uni0448" unicode="&#x448;" horiz-adv-x="1194" 
d="M170 0v1024h171v-854h171v683h170v-683h171v854h171v-1024h-854z" />
    <glyph glyph-name="uni0449" unicode="&#x449;" horiz-adv-x="1194" 
d="M1024 -170v170h-854v1024h171v-854h171v683h170v-683h171v854h171v-854h170v-340h-170z" />
    <glyph glyph-name="uni044A" unicode="&#x44a;" 
d="M682 170v342h171v-342h-171zM170 0v853h-170v171h341v-342h341v-170h-341v-342h341v-170h-512z" />
    <glyph glyph-name="uni044B" unicode="&#x44b;" horiz-adv-x="1194" 
d="M170 0v1024h171v-342h341v-170h-341v-342h341v-170h-512zM853 0v170h-171v342h171v512h171v-1024h-171z" />
    <glyph glyph-name="uni044C" unicode="&#x44c;" 
d="M682 170v342h171v-342h-171zM170 0v1024h171v-342h341v-170h-341v-342h341v-170h-512z" />
    <glyph glyph-name="uni044D" unicode="&#x44d;" 
d="M170 0v170h512v-170h-512zM682 170v342h-341v170h341v171h171v-683h-171zM170 853v171h512v-171h-512z" />
    <glyph glyph-name="uni044E" unicode="&#x44e;" horiz-adv-x="1365" 
d="M682 0v170h342v-170h-342zM1024 170v683h170v-683h-170zM170 0v1024h171v-342h171v171h170v-683h-170v342h-171v-512h-171zM682 853v171h342v-171h-342z" />
    <glyph glyph-name="uni044F" unicode="&#x44f;" 
d="M170 0v170h171v-170h-171zM170 512v341h171v-341h-171zM682 0v341h-170v-171h-171v342h341v341h-341v171h512v-1024h-171z" />
    <glyph glyph-name="uni0451" unicode="&#x451;" 
d="M341 0v170h512v-170h-512zM170 170v683h171v-171h341v171h171v-341h-512v-342h-171zM341 853v171h341v-171h-341zM341 1194v171h171v-171h-171zM682 1194v171h171v-171h-171z" />
    <glyph glyph-name="uni0452" unicode="&#x452;" 
d="M512 -341v171h170v-171h-170zM682 -170v852h171v-852h-171zM170 0v1024h-170v170h170v171h171v-171h341v-170h-341v-171h341v-171h-341v-682h-171z" />
    <glyph glyph-name="uni0453" unicode="&#x453;" 
d="M170 0v1024h683v-171h-512v-853h-171zM341 1194v171h171v-171h-171zM512 1365v171h170v-171h-170z" />
    <glyph glyph-name="uni0454" unicode="&#x454;" 
d="M341 0v170h512v-170h-512zM170 170v683h171v-171h341v-170h-341v-342h-171zM341 853v171h512v-171h-512z" />
    <glyph glyph-name="uni0455" unicode="&#x455;" 
d="M341 0v170h341v-170h-341zM170 170v171h171v-171h-171zM682 170v171h171v-171h-171zM512 341v171h170v-171h-170zM341 512v170h171v-170h-171zM170 682v171h171v-171h-171zM682 682v171h171v-171h-171zM341 853v171h341v-171h-341z" />
    <glyph glyph-name="uni0456" unicode="&#x456;" horiz-adv-x="853" 
d="M170 0v170h171v683h-171v171h342v-854h170v-170h-512zM341 1194v171h171v-171h-171z" />
    <glyph glyph-name="uni0457" unicode="&#x457;" horiz-adv-x="853" 
d="M170 0v170h171v683h-171v171h342v-854h170v-170h-512zM170 1194v171h171v-171h-171zM512 1194v171h170v-171h-170z" />
    <glyph glyph-name="uni0458" unicode="&#x458;" 
d="M341 -341v171h341v-171h-341zM170 -170v170h171v-170h-171zM682 -170v1023h-170v171h341v-1194h-171zM682 1194v171h171v-171h-171z" />
    <glyph glyph-name="uni0459" unicode="&#x459;" horiz-adv-x="1194" 
d="M0 0v341h170v-341h-170zM853 170v342h171v-342h-171zM170 341v512h171v-512h-171zM512 0v853h-171v171h341v-342h171v-170h-171v-342h171v-170h-341z" />
    <glyph glyph-name="uni045A" unicode="&#x45a;" horiz-adv-x="1344" 
d="M1024 170v342h170v-342h-170zM170 0v1024h171v-342h341v342h171v-342h171v-170h-171v-342h171v-170h-342v512h-341v-512h-171z" />
    <glyph glyph-name="uni045B" unicode="&#x45b;" 
d="M682 0v682h171v-682h-171zM170 0v1024h-170v170h170v171h171v-171h341v-170h-341v-171h341v-171h-341v-682h-171z" />
    <glyph glyph-name="uni045E" unicode="&#x45e;" 
d="M170 -341v171h342v-171h-342zM512 -170v511h170v-511h-170zM341 341v341h171v-341h-171zM682 341v341h171v-341h-171zM170 682v342h171v-342h-171zM853 682v342h171v-342h-171zM512 1194v171h341v-171h-341zM341 1365v171h171v-171h-171zM853 1365v171h171v-171h-171z
" />
    <glyph glyph-name="uni045F" unicode="&#x45f;" 
d="M341 -341v341h-341v1024h170v-854h512v854h171v-1024h-341v-341h-171z" />
    <glyph glyph-name="emdash" unicode="&#x2014;" 
d="M0 512v170h1024v-170h-1024z" />
    <glyph glyph-name="quoteleft" unicode="&#x2018;" horiz-adv-x="853" 
d="M341 853v512h171v-341h170v-171h-341z" />
    <glyph glyph-name="quoteright" unicode="&#x2019;" horiz-adv-x="853" 
d="M341 853v341h-171v171h342v-512h-171z" />
    <glyph glyph-name="quotedblleft" unicode="&#x201c;" 
d="M0 853v512h170v-341h171v-171h-341zM512 853v512h170v-341h171v-171h-341z" />
    <glyph glyph-name="quotedblright" unicode="&#x201d;" 
d="M170 853v341h-170v171h341v-512h-171zM682 853v341h-170v171h341v-512h-171z" />
    <glyph glyph-name="trademark" unicode="&#x2122;" 
d="M170 853v341h-170v171h682v-171h171v171h171v-512h-171v171h-171v-171h-170v341h-171v-341h-171z" />
  </font>
</defs>
</svg>
