<?xml version="1.0" standalone="no"?>
<!DOCTYPE svg PUBLIC "-//W3C//DTD SVG 20010904//EN"
 "http://www.w3.org/TR/2001/REC-SVG-20010904/DTD/svg10.dtd">
<svg version="1.0" xmlns="http://www.w3.org/2000/svg"
 width="812.000000pt" height="2154.000000pt" viewBox="0 0 812.000000 2154.000000"
 preserveAspectRatio="xMidYMid meet">

<g transform="translate(0.000000,2154.000000) scale(0.100000,-0.100000)"
fill="#000000" stroke="none">
<path d="M3340 21530 c0 -16 -43 -29 -110 -33 -34 -3 -63 -7 -67 -10 -13 -14
55 -19 110 -9 34 6 61 10 62 9 0 -1 13 -21 29 -44 19 -29 47 -51 94 -76 85
-44 157 -70 174 -64 12 4 -9 15 -142 75 -95 43 -140 94 -125 141 5 15 2 21 -9
21 -9 0 -16 -5 -16 -10z"/>
<path d="M3120 21507 c-25 -12 -76 -53 -115 -91 -135 -133 -220 -187 -320
-201 -57 -9 -58 3 -5 70 58 73 54 95 -10 51 -36 -24 -164 -68 -235 -81 -22 -4
-84 -8 -138 -10 -86 -2 -105 -6 -160 -34 -114 -56 -237 -185 -312 -326 -29
-55 -64 -97 -166 -195 -113 -110 -129 -129 -129 -157 0 -26 5 -34 25 -39 34
-8 32 -15 -15 -50 -22 -16 -40 -32 -40 -35 0 -3 -9 -15 -20 -27 -32 -35 -60
-117 -60 -180 0 -101 42 -225 97 -283 l24 -26 -48 -77 c-85 -137 -93 -151 -93
-173 0 -25 21 -39 84 -57 39 -11 42 -15 65 -83 46 -139 124 -209 314 -283 94
-36 115 -49 163 -98 65 -67 59 -87 -15 -47 -58 32 -84 28 -79 -12 2 -21 14
-34 46 -52 53 -29 97 -87 118 -155 8 -28 19 -110 24 -182 8 -119 6 -151 -15
-221 -13 -41 21 -26 71 32 l48 55 13 -52 c8 -29 28 -74 44 -100 56 -87 200
-197 259 -198 44 -1 98 -26 125 -59 32 -37 113 -64 177 -59 l43 4 -40 8 c-77
15 -145 37 -155 49 -5 6 -18 22 -28 34 -12 16 -42 29 -95 42 -167 41 -308 191
-319 339 -4 53 -24 60 -47 15 -11 -21 -28 -48 -38 -60 -18 -22 -18 -19 -20
110 -5 256 -42 354 -166 431 -43 26 -24 31 26 7 47 -23 74 -26 97 -11 19 12 0
47 -60 108 -45 45 -109 81 -215 119 -124 44 -214 136 -258 263 -22 62 -23 63
-76 81 -49 15 -74 34 -67 49 2 3 31 51 66 108 67 110 63 107 127 86 10 -3 3 4
-15 15 -28 18 -33 26 -28 47 9 34 -1 64 -21 64 -12 0 -13 -3 -4 -14 6 -7 8
-21 5 -30 -5 -13 -9 -14 -21 -4 -24 20 -62 104 -79 175 -35 151 7 249 154 355
57 42 56 61 -2 53 -89 -14 -71 25 80 170 l104 101 0 -51 c0 -71 15 -116 53
-158 33 -38 102 -74 111 -58 3 5 -15 19 -41 33 -66 33 -97 95 -96 187 1 119
69 240 200 361 113 104 136 113 288 122 136 7 255 32 329 70 l40 21 -27 -36
c-67 -88 1 -113 141 -51 70 31 140 84 217 164 33 34 84 77 113 96 28 18 52 36
52 39 0 7 0 7 -50 -18z"/>
<path d="M4565 21473 c-46 -6 -206 -41 -340 -73 -66 -16 -176 -40 -245 -54
-69 -14 -152 -32 -185 -40 -33 -9 -84 -15 -112 -16 -29 0 -53 -4 -53 -10 0
-30 325 19 614 91 176 44 302 69 353 69 40 0 45 -3 57 -32 8 -18 19 -56 26
-85 28 -122 167 -212 422 -273 42 -10 85 -27 96 -38 27 -27 150 -73 322 -120
158 -44 200 -58 200 -68 0 -3 -35 -43 -77 -88 -215 -227 -185 -354 128 -559
220 -142 277 -251 231 -434 -43 -172 -104 -288 -221 -427 -41 -49 -66 -84 -55
-78 35 19 137 126 176 186 21 33 38 56 38 53 0 -3 -7 -32 -15 -64 -20 -78 -19
-153 5 -220 11 -32 17 -60 12 -64 -4 -3 -43 -33 -87 -65 -99 -72 -153 -121
-267 -242 -121 -128 -155 -195 -117 -233 10 -10 26 -19 34 -19 34 0 10 -19
-73 -58 -118 -55 -199 -76 -452 -118 -266 -44 -350 -62 -350 -77 -1 -7 -21
-27 -45 -44 -59 -44 -73 -91 -44 -146 l20 -39 -38 6 c-21 4 -47 10 -57 13 -19
5 -19 6 -1 19 35 26 8 25 -56 0 -34 -15 -68 -26 -75 -26 -7 0 -16 17 -19 38
-3 20 -10 59 -15 86 -10 46 -9 50 26 100 48 67 68 84 199 171 117 78 153 110
180 164 35 69 11 211 -46 275 -59 68 -167 78 -247 23 -48 -34 -61 -33 -94 7
-24 30 -27 41 -33 152 -15 285 -32 370 -108 528 l-52 110 -80 37 c-108 51
-217 86 -355 116 -98 21 -150 26 -351 30 -204 5 -241 3 -270 -11 -47 -22 -293
-237 -330 -289 -17 -23 -33 -54 -36 -69 -5 -24 -9 -26 -39 -21 -21 3 -40 1
-50 -8 -40 -33 -109 -222 -119 -327 -8 -78 10 -147 90 -342 l47 -115 -11 -90
c-12 -95 -3 -261 19 -362 12 -55 45 -93 80 -93 25 0 70 46 70 72 0 32 13 14
50 -72 38 -87 63 -123 96 -141 25 -13 25 -13 21 -148 -5 -146 -16 -200 -71
-346 -28 -72 -45 -100 -88 -145 -52 -53 -57 -55 -109 -56 -53 -2 -148 -32
-235 -76 l-43 -21 -25 30 c-67 79 -201 130 -312 119 -114 -12 -251 -91 -364
-213 -68 -72 -154 -179 -196 -241 -62 -92 -190 -298 -213 -342 -21 -41 -54
-102 -134 -250 -66 -122 -183 -254 -312 -351 -16 -13 -70 -62 -120 -109 -49
-48 -113 -108 -141 -133 -92 -84 -137 -221 -97 -296 21 -41 91 -81 173 -101
30 -8 59 -17 63 -21 5 -3 -6 -29 -23 -57 -17 -28 -34 -73 -38 -99 -21 -131 16
-205 125 -254 56 -26 71 -29 131 -24 37 3 83 10 102 15 62 17 86 12 121 -24
30 -33 32 -39 35 -123 2 -48 7 -110 13 -138 18 -93 25 -367 12 -472 -22 -173
-42 -305 -62 -411 -25 -132 -25 -236 0 -301 19 -51 74 -128 157 -220 l48 -53
115 5 c76 3 144 13 196 27 141 39 490 128 493 125 2 -1 -6 -56 -17 -121 -24
-138 -60 -257 -136 -454 -30 -77 -55 -148 -55 -158 0 -9 -9 -23 -20 -29 -35
-22 -162 -318 -198 -463 -46 -181 -106 -630 -121 -905 -18 -313 -21 -357 -36
-500 -8 -77 -17 -165 -20 -195 -3 -30 -7 -68 -9 -85 -2 -16 -7 -73 -10 -125
-4 -52 -11 -129 -17 -170 -5 -41 -14 -131 -19 -200 -5 -69 -12 -136 -14 -150
-2 -14 -7 -63 -10 -110 -4 -47 -9 -101 -11 -120 -2 -19 -6 -55 -9 -80 -2 -25
-11 -108 -20 -185 -17 -158 -29 -312 -51 -660 -23 -347 -44 -645 -50 -685 -9
-63 -44 -532 -51 -685 -8 -170 -9 -233 -2 -710 3 -187 2 -419 -2 -515 -4 -96
-11 -339 -14 -540 -7 -366 -12 -491 -21 -565 -5 -44 -10 -141 -25 -520 -11
-245 -46 -761 -54 -774 -2 -3 -7 -35 -10 -70 -4 -35 -9 -67 -11 -71 -3 -5 -16
-103 -30 -220 -14 -117 -33 -242 -42 -279 -21 -87 -30 -420 -13 -533 18 -128
102 -344 138 -356 10 -3 11 3 6 24 -7 29 -7 29 17 12 13 -10 47 -31 74 -48 75
-45 87 -53 109 -73 16 -14 32 -18 66 -14 68 8 77 25 85 171 l7 124 32 6 c17 2
74 17 126 31 58 17 133 29 191 32 87 5 106 3 200 -25 79 -24 138 -34 249 -41
80 -6 154 -11 166 -11 19 0 22 -7 27 -92 4 -51 11 -136 17 -188 5 -52 15 -144
20 -205 15 -168 16 -169 73 -231 l52 -57 -1 -221 c-2 -313 -2 -315 -60 -431
-102 -203 -113 -239 -129 -417 -17 -179 -13 -207 33 -253 41 -42 95 -73 182
-105 175 -65 344 -78 466 -36 150 51 205 96 230 192 17 65 19 188 4 229 -6 14
-10 79 -10 143 -1 222 -26 379 -67 409 -13 10 -15 25 -9 85 5 54 1 101 -14
183 -12 61 -25 153 -29 205 -7 80 -5 100 10 135 18 43 41 186 59 380 17 185
20 205 34 205 21 0 52 -42 89 -120 35 -72 89 -154 208 -312 109 -144 217 -233
338 -279 112 -42 231 -12 345 89 29 26 91 77 137 114 46 37 97 81 112 98 33
35 32 35 198 15 162 -19 193 -25 444 -95 116 -33 256 -68 312 -79 56 -11 148
-32 204 -46 125 -32 212 -33 337 -5 51 11 94 20 97 20 4 0 5 -91 3 -201 l-3
-201 -32 -27 c-32 -27 -59 -100 -62 -169 -1 -18 -10 -71 -21 -118 -25 -107
-29 -354 -6 -373 25 -21 176 -91 220 -102 95 -25 90 -26 124 34 23 40 36 54
49 52 167 -33 173 -36 214 -92 82 -110 206 -187 509 -316 199 -84 244 -92 428
-77 156 13 195 28 273 102 62 59 68 69 94 151 28 87 28 90 16 180 -18 126 -42
187 -95 235 -52 48 -88 68 -141 77 -42 8 -109 38 -135 60 -8 8 -46 30 -85 50
-100 53 -136 76 -131 84 16 26 -140 119 -268 161 -41 14 -80 34 -95 50 -14 15
-40 35 -58 45 -33 19 -64 77 -119 220 -31 82 -31 77 -21 630 l7 370 37 7 c21
4 103 16 183 28 407 60 588 148 753 362 109 143 171 285 216 493 27 122 23
179 -23 345 -58 213 -114 337 -287 640 -103 181 -275 547 -314 670 -15 47 -33
99 -40 115 -105 248 -155 413 -230 760 -14 66 -30 136 -35 155 -6 19 -26 115
-45 214 -20 98 -51 233 -69 300 -19 66 -39 146 -46 176 -27 124 -64 230 -131
375 -12 28 -28 64 -35 80 -6 17 -35 84 -64 150 -29 66 -67 156 -85 200 -31 76
-92 214 -157 355 -16 36 -40 92 -53 125 -12 33 -44 116 -70 185 -99 260 -166
440 -221 595 -31 88 -74 207 -94 265 -37 102 -78 229 -175 535 -26 83 -74 232
-106 333 -33 101 -73 234 -90 295 -17 62 -48 166 -69 233 -22 67 -62 213 -90
325 -28 112 -71 269 -95 349 -24 80 -62 219 -85 310 -29 117 -54 194 -89 265
-26 55 -58 127 -70 160 -57 147 -88 214 -124 275 -22 36 -75 124 -117 196 -43
72 -95 155 -115 184 -31 45 -38 62 -41 115 -1 34 -14 111 -28 172 -44 189 -50
289 -36 553 6 129 19 285 26 345 25 191 42 350 37 357 -2 5 3 61 12 125 32
243 47 279 123 316 39 18 53 33 79 82 37 69 80 198 89 267 6 45 8 47 38 46 50
-2 169 24 189 41 11 9 17 24 14 38 -3 17 6 32 33 57 47 42 60 49 152 82 40 15
91 37 114 50 22 13 50 24 61 24 21 0 53 29 53 47 0 6 7 16 15 23 26 22 19 46
-78 235 -34 68 -41 91 -43 151 -1 39 4 102 12 140 42 202 42 191 -4 307 -23
58 -74 237 -116 403 -41 165 -100 374 -132 464 -31 91 -76 226 -101 300 -50
149 -77 194 -153 251 -64 48 -121 66 -275 86 -151 20 -220 12 -480 -55 -160
-42 -202 -49 -265 -47 -41 2 -79 4 -85 5 -5 1 -18 -1 -27 -5 -27 -11 -45 38
-70 191 -18 106 -22 161 -18 232 l5 94 45 39 c55 47 108 81 114 71 2 -4 0 -29
-5 -56 -14 -76 -13 -246 1 -293 7 -23 23 -52 35 -63 l23 -22 39 25 c35 22 43
35 66 106 21 62 27 100 27 166 0 83 0 85 24 85 14 0 36 4 50 10 18 7 37 5 67
-5 48 -17 125 -20 134 -5 3 6 -3 23 -14 39 -40 56 -19 116 61 172 35 26 44 28
327 74 118 19 251 45 295 56 85 23 226 83 276 119 36 26 39 50 7 50 -54 0 -61
47 -17 108 52 72 262 275 349 337 140 100 128 81 96 160 -25 64 -27 76 -22
184 3 90 9 127 25 164 12 27 31 79 41 115 74 250 22 380 -218 541 -124 84
-208 157 -237 207 -54 92 -17 192 122 330 36 36 64 73 64 84 0 30 -37 48 -172
86 -232 65 -354 108 -362 130 -3 7 -13 14 -23 14 -9 0 -78 21 -152 46 -262 89
-308 127 -340 285 -17 79 -49 103 -126 92z m-1562 -2164 c14 -8 45 -39 69 -69
24 -31 53 -67 66 -80 12 -13 21 -28 19 -33 -3 -11 -2 -11 -59 -2 -42 6 -48 10
-48 31 0 13 -7 42 -16 64 -13 32 -26 45 -69 66 -65 31 -100 30 -100 -6 0 -25
-12 -29 -46 -16 -10 5 -19 -1 -27 -16 -9 -20 -11 -18 -11 23 -1 25 2 49 7 53
11 13 186 0 215 -15z m827 -230 c78 -27 192 -83 208 -101 10 -12 8 -18 -6 -30
-16 -15 -40 -21 -129 -34 l-43 -7 0 43 c0 36 -6 48 -39 81 -21 22 -53 42 -70
45 -17 4 -31 10 -31 15 0 15 47 10 110 -12z m-137 -26 c4 -2 7 -11 7 -20 0
-13 -8 -14 -40 -9 -32 5 -40 3 -40 -9 0 -18 -11 -19 -33 -2 -42 31 55 68 106
40z m-1005 -340 c8 -16 82 -301 82 -317 0 -14 -70 -5 -90 12 -19 15 -23 31
-29 108 -9 126 -3 214 15 214 7 0 17 -8 22 -17z m1458 -329 c7 -29 -1 -189
-11 -215 -3 -9 -24 -24 -45 -34 -21 -9 -57 -35 -80 -57 l-41 -40 5 96 c3 78 9
103 31 143 32 58 51 81 90 110 39 29 43 28 51 -3z m-1401 -24 c19 0 36 -4 39
-8 6 -11 -27 -84 -46 -100 -25 -20 -55 14 -66 75 l-9 51 24 -9 c13 -5 39 -9
58 -9z m1537 -146 c4 -21 7 -82 7 -134 1 -80 -2 -101 -20 -130 -12 -19 -27
-38 -33 -42 -21 -14 -56 -8 -77 13 -20 20 -21 29 -15 112 3 50 8 92 10 94 2 2
15 -7 29 -21 40 -40 49 -31 11 10 -34 36 -37 45 -25 99 5 26 12 31 46 36 56 8
59 7 67 -37z m-77 -344 c14 0 35 5 46 10 15 8 19 7 19 -3 0 -25 -30 -100 -47
-119 -39 -44 -83 2 -83 87 0 42 2 45 19 35 11 -5 32 -10 46 -10z m-2104 -3102
c6 -24 23 -62 39 -85 19 -26 35 -68 45 -113 24 -115 26 -110 -69 -151 l-84
-36 -6 28 c-3 15 -8 103 -12 196 l-6 168 38 22 c22 11 41 20 42 18 2 -2 8 -23
13 -47z"/>
<path d="M1978 20513 c7 -3 16 -2 19 1 4 3 -2 6 -13 5 -11 0 -14 -3 -6 -6z"/>
</g>
</svg>
