<?xml version="1.0" standalone="no"?>
<!DOCTYPE svg PUBLIC "-//W3C//DTD SVG 20010904//EN"
 "http://www.w3.org/TR/2001/REC-SVG-20010904/DTD/svg10.dtd">
<svg version="1.0" xmlns="http://www.w3.org/2000/svg"
 width="1046.000000pt" height="1915.000000pt" viewBox="0 0 1046.000000 1915.000000"
 preserveAspectRatio="xMidYMid meet">

<g transform="translate(0.000000,1915.000000) scale(0.100000,-0.100000)"
fill="#000000" stroke="none">
<path d="M4662 19124 c-46 -8 -114 -27 -152 -44 -120 -53 -278 -153 -320 -203
-15 -18 -29 -20 -230 -32 -52 -3 -138 -10 -190 -15 -52 -5 -126 -12 -164 -16
-66 -6 -71 -8 -130 -62 -81 -74 -154 -178 -215 -305 -27 -56 -83 -173 -124
-259 -42 -86 -108 -207 -147 -269 -53 -81 -69 -114 -61 -122 8 -8 19 -7 40 6
16 9 31 17 34 17 3 0 3 -35 0 -78 -6 -77 -5 -79 26 -114 18 -20 51 -48 75 -62
l43 -25 -5 -74 c-3 -49 2 -101 13 -149 18 -79 26 -96 73 -145 29 -29 30 -34
20 -70 -15 -53 -5 -164 19 -210 11 -21 46 -58 80 -83 49 -38 59 -49 52 -65
-11 -29 -11 -75 1 -75 6 0 15 -12 21 -27 25 -63 36 -77 73 -100 21 -14 68 -36
105 -50 77 -29 128 -65 141 -99 14 -35 28 -29 32 14 3 34 6 37 35 40 68 7 93
-41 67 -127 -17 -59 -8 -70 25 -31 l26 32 43 -22 c35 -19 53 -21 96 -16 63 7
125 31 132 51 3 8 30 19 60 25 66 14 79 7 88 -49 4 -27 15 -46 33 -59 l28 -20
-40 -59 c-38 -55 -43 -58 -93 -66 -40 -7 -52 -13 -52 -27 0 -18 -23 -43 -44
-46 -17 -3 -201 -107 -204 -116 -2 -4 -10 -8 -17 -8 -8 0 -21 -7 -29 -16 -9
-8 -16 -13 -16 -9 0 8 -143 -70 -166 -91 -7 -6 -26 -17 -43 -24 -17 -7 -31
-16 -31 -21 0 -5 -6 -9 -13 -9 -20 0 -113 -87 -165 -153 -26 -34 -54 -69 -63
-78 -8 -8 -44 -53 -79 -100 -36 -46 -72 -93 -81 -104 -57 -68 -109 -136 -109
-141 0 -3 -9 -18 -20 -34 l-20 -27 23 -26 c12 -14 38 -33 57 -44 77 -41 94
-58 126 -128 18 -39 38 -93 45 -120 7 -28 18 -59 26 -71 7 -11 24 -67 38 -124
15 -57 29 -108 32 -114 4 -6 8 -24 10 -41 3 -39 17 -111 22 -117 2 -2 4 -14 6
-28 2 -14 10 -50 18 -80 9 -30 19 -73 23 -95 4 -22 8 -42 9 -45 19 -60 67
-280 71 -324 8 -84 14 -116 24 -116 6 0 10 15 10 33 0 25 3 29 11 17 9 -12 10
-11 6 7 -3 14 1 24 11 28 8 3 12 8 9 11 -3 4 2 15 12 25 20 22 53 120 76 229
15 74 29 109 39 100 8 -9 36 -228 36 -288 0 -31 5 -75 10 -97 5 -22 12 -134
16 -250 8 -295 9 -308 23 -313 33 -11 78 -65 98 -118 12 -33 38 -101 58 -153
20 -54 33 -105 31 -120 -2 -14 -5 -42 -5 -61 -1 -26 -4 -31 -11 -20 -7 11 -10
-1 -10 -40 0 -30 -9 -95 -20 -145 -11 -49 -33 -153 -50 -230 -27 -130 -33
-146 -79 -217 -30 -45 -53 -93 -57 -117 -5 -32 -13 -45 -33 -56 -16 -8 -37
-34 -50 -64 -13 -27 -29 -49 -34 -48 -6 1 -25 -38 -43 -88 -17 -49 -39 -108
-47 -130 -18 -48 -40 -206 -31 -228 3 -9 -17 -108 -45 -220 -64 -255 -92 -511
-94 -862 l-2 -230 32 -70 c83 -184 85 -333 7 -562 -34 -101 -31 -142 22 -304
25 -77 46 -157 47 -177 2 -54 -12 -196 -29 -281 -14 -77 -32 -107 -73 -122
-22 -9 -23 -12 -16 -77 8 -74 12 -139 19 -286 9 -188 62 -687 97 -911 44 -283
57 -374 68 -470 15 -125 45 -362 77 -610 14 -104 29 -228 34 -275 6 -47 12
-96 15 -110 2 -14 7 -50 10 -80 3 -30 10 -98 15 -150 28 -274 49 -505 55 -590
5 -84 29 -345 40 -440 2 -19 7 -64 10 -100 3 -36 8 -85 10 -110 39 -412 40
-452 40 -1180 -1 -543 -4 -750 -14 -825 -27 -205 -26 -232 8 -308 17 -38 31
-81 31 -95 0 -15 -16 -94 -35 -177 -57 -247 -51 -325 25 -351 14 -4 29 -7 33
-6 5 2 23 -7 42 -18 18 -11 39 -20 48 -20 8 0 30 -12 47 -26 27 -23 41 -27
103 -28 40 0 97 2 127 4 l55 5 -3 -49 c-3 -63 -19 -80 -88 -95 -66 -15 -154
-50 -154 -62 0 -4 4 -11 10 -14 16 -10 12 -68 -11 -158 -11 -45 -23 -89 -26
-97 -4 -8 -7 -17 -8 -20 -17 -59 -62 -120 -173 -234 l-77 -79 -3 -116 c-2 -80
1 -124 10 -140 16 -29 100 -89 137 -97 14 -3 33 -9 42 -14 9 -5 63 -10 120
-12 l104 -3 110 56 c61 31 180 87 265 124 85 37 160 72 165 77 6 5 17 30 25
56 l15 47 134 44 133 45 20 -27 c11 -15 25 -27 33 -27 25 0 104 51 140 91 29
33 35 46 31 72 -8 55 -15 128 -21 227 -4 52 -11 127 -17 165 -13 83 -12 129 2
133 23 8 38 33 44 74 6 41 24 77 90 184 37 59 37 93 2 268 -27 131 -34 210
-23 256 7 33 20 252 21 364 1 58 -5 113 -16 155 -41 151 -46 183 -52 331 -4
85 -8 182 -11 215 -2 33 -7 98 -10 145 -3 47 -10 119 -15 160 -5 41 -16 145
-25 230 -8 85 -17 171 -20 190 -26 210 -53 522 -60 690 -3 80 -8 174 -10 210
-2 36 -7 198 -10 360 -17 983 -23 1250 -30 1392 -3 68 -7 211 -10 318 -2 107
-7 274 -10 370 -4 110 -3 169 3 160 5 -8 19 -96 32 -195 12 -99 28 -218 35
-265 8 -47 17 -105 19 -130 3 -25 10 -70 16 -100 6 -30 19 -114 30 -185 11
-72 22 -139 24 -150 2 -11 9 -56 16 -100 6 -44 24 -147 40 -230 16 -82 32
-170 36 -195 3 -25 8 -54 11 -65 17 -78 39 -298 47 -475 4 -69 8 -138 11 -155
4 -29 9 -83 21 -240 3 -38 10 -110 15 -160 6 -49 12 -108 14 -130 3 -22 7 -51
10 -65 2 -14 14 -139 25 -279 12 -140 22 -257 24 -260 2 -3 7 -49 11 -101 3
-52 8 -106 10 -120 2 -14 6 -70 10 -125 3 -55 8 -125 10 -155 26 -344 26 -887
0 -1060 -2 -14 -6 -50 -10 -80 -3 -30 -10 -84 -15 -120 -4 -36 -7 -98 -6 -137
3 -59 8 -80 30 -113 14 -22 26 -49 26 -60 0 -11 -15 -60 -33 -108 -44 -113
-60 -197 -59 -305 1 -69 6 -94 21 -115 10 -15 28 -48 40 -74 17 -37 28 -49 53
-56 32 -8 124 -1 168 13 l23 7 -6 -113 c-4 -63 -13 -166 -21 -229 -9 -63 -17
-153 -18 -199 -3 -79 -2 -84 22 -102 14 -11 71 -35 128 -54 92 -32 107 -34
137 -24 27 10 41 9 76 -3 24 -9 68 -24 96 -34 29 -11 53 -24 53 -30 0 -39 89
-94 245 -152 101 -37 392 -105 500 -117 33 -4 110 -15 170 -26 61 -10 117 -19
125 -19 9 0 51 23 93 51 88 58 83 40 66 233 l-10 118 -51 66 c-27 36 -52 72
-55 79 -3 7 -33 30 -66 52 -89 56 -303 236 -299 251 5 21 -41 124 -65 146 -13
12 -49 27 -81 33 -66 13 -87 26 -97 59 -6 22 -5 23 26 18 19 -3 67 -1 109 4
106 14 121 31 119 148 -1 48 8 146 19 217 23 143 22 218 -2 289 -12 35 -17
107 -21 293 -4 137 -9 266 -13 288 -7 37 -10 40 -44 43 -41 3 -64 -2 -183 -46
l-80 -29 -6 -104 c-3 -57 -12 -116 -19 -132 -11 -23 -19 -27 -57 -27 -72 0
-132 33 -235 129 -30 28 -53 60 -63 90 -14 41 -48 239 -62 364 -3 28 -12 51
-19 54 -8 3 -14 18 -14 35 0 17 4 27 10 23 6 -3 10 -2 10 4 0 5 -4 12 -9 15
-4 3 -5 27 0 53 4 27 13 95 19 153 10 90 40 281 104 665 23 132 35 281 51 613
8 163 21 389 29 502 9 113 18 354 21 535 4 182 8 404 11 495 10 409 8 654 -5
810 -10 118 -12 243 -7 440 6 257 12 362 36 585 6 50 15 200 20 335 17 416 40
841 50 920 6 41 17 152 25 245 8 94 20 215 25 270 6 55 15 174 20 265 5 91 25
269 44 395 19 127 39 275 45 330 5 55 17 156 26 225 9 69 13 141 10 160 -3 19
-8 65 -10 103 -2 37 -9 86 -15 108 -14 52 -28 209 -18 209 18 0 28 41 19 78
-5 20 -12 55 -15 77 -3 22 -10 64 -16 94 -5 29 -10 67 -10 83 0 50 -31 140
-49 145 -9 2 -26 27 -36 54 -16 39 -24 49 -38 45 -11 -2 -23 3 -30 15 -17 28
-25 23 -23 -13 1 -33 1 -33 -59 -40 -33 -3 -91 -18 -128 -32 -76 -29 -261 -79
-376 -102 -92 -18 -360 -46 -372 -38 -5 3 -47 5 -94 5 -49 1 -83 5 -79 10 3 5
13 9 22 9 9 0 57 13 107 29 49 16 113 36 140 44 28 9 102 34 165 57 63 23 151
54 195 69 118 42 274 108 325 139 25 15 52 30 60 34 11 5 9 7 -8 7 -19 1 -21
4 -12 20 5 11 12 104 16 208 3 103 8 204 10 223 8 74 20 256 18 285 -1 17 -2
138 -1 270 0 132 0 254 -1 271 0 16 -16 57 -36 90 -19 33 -52 98 -73 145 -45
102 -46 120 -4 324 16 83 33 166 36 185 35 227 45 320 41 363 -3 29 -10 111
-16 182 -11 133 -26 249 -36 291 -5 20 -2 24 15 24 30 0 26 17 -14 53 -19 17
-35 35 -35 41 -1 6 -17 24 -38 39 -30 23 -44 28 -72 23 -163 -28 -260 -10
-314 57 -29 37 -31 44 -31 126 0 75 4 94 28 140 15 29 27 59 27 66 0 8 8 18
18 24 12 7 -9 9 -73 8 -103 -1 -147 14 -184 64 -31 42 -30 108 4 185 21 49 49
81 157 186 72 70 129 130 126 134 -6 5 -112 -91 -224 -205 -102 -103 -134
-253 -69 -321 15 -15 44 -35 65 -45 l38 -17 -15 -38 c-17 -43 -11 -85 13 -94
12 -4 29 7 57 36 23 25 37 35 33 23 -26 -71 -30 -171 -10 -258 9 -37 55 -71
129 -94 53 -17 72 -18 163 -10 101 10 103 9 128 -14 48 -45 54 -73 69 -334 12
-209 25 -498 21 -504 -2 -3 -7 -40 -10 -80 -4 -41 -9 -78 -12 -83 -3 -4 -7
-20 -9 -35 -2 -16 -11 -64 -21 -108 -22 -105 -21 -103 -29 -156 l-7 -46 -47 9
c-46 9 -282 12 -396 4 -126 -8 -179 -19 -395 -86 -203 -63 -276 -82 -505 -131
-55 -12 -109 -26 -119 -31 -15 -8 -22 -7 -31 6 -30 40 -360 -6 -630 -89 -149
-45 -306 -78 -317 -67 -5 5 -10 108 -12 228 -2 120 -8 230 -13 244 -6 14 -13
59 -17 100 -9 93 -22 176 -43 260 l-16 65 61 140 c79 184 118 302 131 399 17
120 -2 111 -33 -16 -9 -38 -48 -146 -87 -240 -120 -294 -136 -339 -169 -458
-18 -63 -35 -119 -40 -125 -4 -5 -13 -28 -20 -50 l-14 -40 -11 60 c-7 33 -31
141 -55 240 -23 99 -57 252 -76 340 -54 263 -88 375 -163 549 -27 64 -82 115
-159 150 -23 10 -42 24 -42 29 0 6 42 62 93 126 51 64 148 186 215 272 67 86
128 161 135 167 28 24 272 -258 331 -382 15 -32 33 -85 41 -119 7 -34 18 -87
25 -117 14 -66 49 -171 61 -185 12 -12 12 45 0 98 -6 23 -17 78 -26 122 -22
102 -53 200 -78 245 -36 65 -187 248 -252 307 l-66 58 48 31 c26 17 152 89
278 159 127 70 237 134 246 141 23 20 31 17 60 -24 24 -35 42 -49 153 -120
105 -67 289 -122 411 -122 164 0 385 37 501 84 113 46 177 90 291 199 50 47
78 67 90 63 17 -4 61 -8 238 -22 43 -3 82 -7 86 -10 4 -2 26 -5 48 -6 46 -1
48 -3 24 -32 -10 -12 0 -4 21 16 66 66 66 66 -314 84 -85 5 -109 9 -126 25
-11 10 -47 24 -80 30 -32 7 -65 18 -73 25 -12 11 -11 12 8 7 l22 -6 -23 36
c-13 19 -26 33 -30 30 -4 -2 -10 9 -14 24 -3 15 -7 34 -10 41 -8 26 20 52 55
52 40 0 110 31 136 60 18 20 19 20 46 -12 15 -18 31 -30 35 -25 4 4 2 31 -4
60 -28 119 -31 107 49 162 39 27 100 77 134 110 80 80 100 133 92 249 -4 63
-1 93 13 136 29 85 43 163 38 206 -3 21 1 53 9 71 7 18 13 55 13 83 0 43 -4
55 -27 76 -104 91 -103 90 -103 136 0 24 7 71 16 103 9 33 17 94 18 135 1 87
-8 106 -93 219 -92 121 -121 170 -121 200 0 78 -55 238 -97 279 -7 7 -13 16
-13 20 0 7 -19 29 -113 130 -46 49 -48 55 -42 91 l6 39 -68 6 c-87 8 -227 53
-374 121 -183 84 -286 103 -427 79z m525 -1346 c12 -21 12 -39 0 -55 -49 -62
-101 -111 -120 -115 l-23 -4 19 38 c20 40 17 111 -6 125 -7 5 15 11 48 14 33
3 63 6 67 7 4 1 10 -4 15 -10z m-290 -135 c4 -10 -2 -23 -16 -34 -21 -17 -21
-18 -1 -24 26 -8 25 -18 -4 -31 -48 -22 -97 27 -62 62 9 8 16 12 16 7 0 -4 7
3 16 15 18 26 42 29 51 5z m-467 -240 c0 -32 -12 -63 -23 -63 -6 0 -22 -12
-35 -27 l-23 -28 14 30 c8 17 17 47 21 68 5 28 12 37 26 37 12 0 20 -7 20 -17z
m-268 -106 l-23 -24 32 -14 c32 -13 84 -14 124 -3 l20 6 -20 -14 c-11 -8 -53
-20 -94 -27 -40 -6 -81 -15 -90 -20 -23 -12 -91 16 -91 38 0 19 83 105 92 95
4 -3 15 -1 25 5 13 7 22 6 32 -4 13 -13 12 -18 -7 -38z m956 -257 c10 -19 11
-32 3 -52 l-10 -27 -33 33 c-18 18 -42 38 -53 44 -17 10 -18 13 -5 22 27 19
83 7 98 -20z m-124 -4 c-3 -7 5 -20 18 -29 13 -9 36 -27 51 -40 28 -24 28 -25
13 -54 -29 -58 -106 -110 -106 -72 0 15 -71 117 -86 123 -28 11 -22 -13 21
-83 25 -40 45 -74 45 -76 0 -6 -90 -25 -118 -25 -21 0 -32 7 -42 28 -8 15 -22
39 -32 53 l-17 26 47 35 c26 19 72 50 103 69 30 19 64 39 75 46 26 16 34 16
28 -1z m-245 -219 l20 -47 -37 0 c-21 0 -46 6 -56 13 -17 13 -17 16 14 51 18
20 34 35 36 34 1 -2 12 -25 23 -51z m371 -131 c0 -2 -7 -6 -15 -10 -8 -3 -15
-1 -15 4 0 6 7 10 15 10 8 0 15 -2 15 -4z m504 -542 c27 -10 18 -27 -43 -85
-189 -178 -411 -258 -726 -260 -125 -1 -215 16 -320 59 -120 50 -295 173 -295
208 0 28 50 14 93 -24 102 -93 237 -155 382 -179 78 -13 294 -9 360 5 159 36
318 114 430 211 81 71 90 76 119 65z m-1660 -2990 c11 -30 6 -37 -14 -19 -11
10 -17 22 -14 26 8 14 21 11 28 -7z m62 -1059 c4 -8 10 -12 15 -9 5 3 12 -1
15 -10 7 -17 250 -212 344 -276 36 -24 78 -53 93 -64 22 -16 30 -18 36 -7 7
10 13 11 31 1 12 -6 28 -9 36 -6 8 3 13 0 11 -7 -1 -7 8 -12 20 -11 13 0 21
-2 18 -4 -3 -3 1 -12 8 -20 10 -13 7 -14 -23 -8 -19 4 -60 10 -90 12 -30 3
-82 14 -115 24 -33 10 -94 24 -135 30 -41 6 -131 29 -199 51 -67 22 -145 44
-173 50 -40 9 -48 14 -43 27 4 10 11 31 15 48 8 33 66 137 96 172 22 26 32 28
40 7z m1292 -630 c17 -6 21 -13 16 -27 -3 -10 -9 -79 -13 -152 -4 -73 -10
-137 -14 -142 -3 -6 -53 -34 -110 -64 l-105 -53 -84 43 c-45 23 -96 51 -113
61 l-30 17 6 99 c3 54 5 129 5 167 l-1 69 210 -6 c116 -3 220 -9 233 -12z
m802 -4870 c7 -8 21 -15 31 -15 11 0 19 -4 19 -9 0 -5 -70 -10 -157 -10 -96
-1 -159 -5 -161 -11 -2 -6 -8 -10 -13 -10 -4 0 -6 6 -3 14 3 8 39 20 92 30 48
8 96 17 107 20 43 8 73 5 85 -9z m270 -49 c-19 -7 -43 -17 -52 -21 -22 -9 -23
-1 -2 19 9 9 32 16 52 16 l37 -1 -35 -13z m-90 -51 c-21 -25 -4 -45 39 -45 51
0 78 9 59 21 -9 6 -9 9 -1 9 20 0 24 -18 7 -35 -12 -12 -31 -15 -73 -13 -50 3
-56 5 -59 26 -2 14 4 29 15 37 24 19 28 19 13 0z m76 0 c-11 -8 -25 -15 -30
-15 -6 0 -2 7 8 15 11 8 25 15 30 15 6 0 2 -7 -8 -15z m-548 -71 c17 -3 32 -9
32 -15 0 -5 -34 -7 -87 -3 l-88 6 25 -21 c14 -12 70 -44 125 -71 91 -44 110
-50 210 -60 158 -16 415 -60 448 -76 15 -8 27 -23 27 -33 0 -17 -10 -18 -127
-15 l-128 4 115 -30 c63 -16 125 -32 138 -35 27 -7 31 -50 4 -57 -21 -6 -115
-2 -287 12 -71 6 -186 12 -254 14 l-124 3 -29 32 c-33 37 -41 76 -10 48 10
-10 28 -17 40 -17 27 0 38 -17 15 -24 -10 -3 31 -3 91 -1 60 3 132 5 160 6 67
1 32 17 -38 18 -27 1 -57 7 -65 14 -9 8 -45 22 -81 32 -94 26 -163 56 -178 77
-7 10 -19 18 -25 18 -15 0 -49 55 -40 64 9 9 74 -4 98 -20 11 -8 26 -14 35
-14 8 1 -12 15 -45 32 -33 17 -61 29 -62 27 0 -2 -11 9 -23 24 -19 24 -21 32
-12 53 12 25 23 26 140 8z m709 -581 c-3 -10 -5 -4 -5 12 0 17 2 24 5 18 2 -7
2 -21 0 -30z m-133 -29 c25 -10 19 -34 -9 -34 -14 0 -25 2 -25 4 0 2 -3 11 -6
20 -6 17 11 21 40 10z m-223 -35 c-16 -6 -22 -15 -18 -28 5 -21 -16 -31 -67
-31 -45 0 -156 21 -156 30 0 4 19 4 42 0 24 -5 50 -5 58 0 8 4 35 11 60 15 25
4 52 11 60 16 8 5 22 8 30 8 8 0 4 -5 -9 -10z m256 -25 c-3 -3 -12 -4 -19 -1
-8 3 -5 6 6 6 11 1 17 -2 13 -5z m-157 -14 c0 -5 -7 -7 -15 -4 -8 4 -15 8 -15
10 0 2 7 4 15 4 8 0 15 -4 15 -10z m100 1 c-23 -13 -90 -21 -90 -11 0 11 25
17 70 19 24 0 30 -2 20 -8z m-821 -715 c-9 -8 -10 -7 -5 7 3 10 7 24 7 30 1 7
3 4 6 -7 3 -10 -1 -23 -8 -30z m-1059 -3806 c-7 -4 -16 -14 -21 -21 -6 -10 -9
-6 -9 13 0 22 4 25 21 21 14 -4 17 -8 9 -13z m-131 -156 c-7 -9 -39 -36 -71
-60 l-57 -45 -7 26 c-9 36 0 52 35 60 16 3 34 12 40 18 5 7 24 14 42 15 28 2
30 1 18 -14z m2576 -44 c42 0 93 -30 98 -59 3 -14 8 -37 13 -50 4 -15 3 -22
-3 -20 -21 8 -151 137 -145 144 4 3 8 1 10 -4 2 -6 14 -11 27 -11z"/>
<path d="M4993 11389 c-24 -17 -43 -35 -43 -40 0 -5 9 -26 20 -47 55 -101 80
-137 93 -140 17 -4 123 109 145 156 16 32 16 33 -16 64 -29 29 -34 31 -65 21
-26 -8 -40 -7 -58 3 -31 17 -27 18 -76 -17z"/>
<path d="M5919 6219 c16 -6 28 -6 35 1 7 7 -1 10 -24 9 -33 0 -34 -1 -11 -10z"/>
<path d="M5970 6215 c0 -11 43 -26 131 -45 116 -25 116 -25 114 2 -2 21 -9 24
-101 35 -110 13 -144 15 -144 8z"/>
<path d="M9686 17827 c-69 -37 -80 -59 -98 -192 -5 -44 -16 -103 -23 -130 -15
-58 -6 -130 27 -234 29 -90 64 -144 89 -138 10 3 30 -3 43 -14 31 -24 63 -24
71 0 3 10 15 29 26 42 23 26 23 25 -2 209 l-12 95 31 50 c17 28 34 63 38 78 3
16 14 31 23 34 9 2 24 9 33 14 15 8 17 5 11 -24 -3 -17 -14 -58 -24 -91 -11
-32 -19 -71 -19 -87 0 -53 33 -178 52 -199 10 -11 16 -20 13 -20 -11 0 36 -81
51 -87 19 -7 61 22 83 58 17 27 17 35 6 73 -7 23 -19 77 -26 120 -11 71 -10
81 6 110 29 49 55 61 55 25 0 -11 -7 -33 -16 -49 -16 -26 -16 -32 4 -107 38
-145 87 -224 112 -182 5 7 16 14 26 15 39 6 43 47 13 137 -20 60 -21 64 -4
112 9 28 23 59 31 69 14 20 15 20 59 -2 45 -22 76 -28 88 -16 11 11 -20 92
-54 136 -44 59 -120 104 -187 111 -31 4 -66 16 -85 29 -27 19 -46 23 -116 25
-68 1 -87 5 -105 21 -17 17 -111 43 -150 42 -6 0 -38 -15 -70 -33z"/>
<path d="M5580 15381 c-80 -17 -154 -82 -166 -146 -27 -145 59 -255 199 -255
97 0 171 44 208 125 24 51 24 99 0 150 -45 98 -139 147 -241 126z m60 -111
c51 -55 76 -163 44 -194 -31 -32 -73 -8 -108 62 -35 69 -41 108 -22 137 22 33
52 31 86 -5z"/>
<path d="M5235 15343 c-48 -10 -75 -26 -75 -45 0 -10 7 -21 15 -24 18 -7 38
-75 26 -87 -5 -5 -30 -12 -55 -14 l-46 -6 0 43 c0 26 7 51 16 62 27 29 2 48
-63 48 -98 0 -161 -44 -114 -80 20 -14 24 -31 34 -126 10 -109 9 -122 -15
-157 -11 -15 -10 -21 7 -33 15 -12 34 -14 78 -9 105 11 143 40 98 74 -16 12
-22 29 -24 61 -2 43 -2 44 38 52 21 5 45 6 52 4 19 -8 16 -86 -4 -108 -52 -58
113 -83 179 -28 l23 20 -23 20 c-19 16 -26 35 -32 92 -19 158 -19 166 1 189
23 26 23 24 3 43 -15 15 -72 20 -119 9z"/>
<path d="M4680 15249 c-29 -18 -39 -20 -65 -10 -42 15 -61 14 -101 -5 -68 -32
-84 -119 -37 -189 38 -56 89 -101 151 -131 l53 -27 34 24 c42 31 110 116 130
163 30 72 15 140 -41 177 -38 25 -81 24 -124 -2z"/>
<path d="M4245 15233 c-62 -14 -85 -26 -85 -43 0 -11 8 -24 19 -29 25 -14 28
-24 41 -145 11 -96 10 -108 -7 -136 -15 -27 -16 -32 -3 -40 33 -21 178 -2 202
27 10 13 8 19 -15 37 -22 17 -28 34 -37 91 -15 106 -13 184 5 191 20 8 19 40
-1 48 -17 7 -88 6 -119 -1z"/>
<path d="M5960 14937 c-60 -31 -90 -77 -90 -135 0 -79 60 -134 177 -162 68
-16 86 -35 54 -61 -43 -35 -121 -15 -160 40 -24 34 -55 41 -65 15 -9 -24 12
-90 38 -121 24 -27 27 -28 128 -28 91 0 109 3 152 25 58 30 86 64 95 116 17
93 -28 143 -154 171 -84 20 -109 39 -86 67 21 25 70 19 124 -16 38 -24 53 -29
66 -21 22 14 26 59 7 87 -13 21 -25 24 -103 29 -48 3 -99 9 -113 12 -17 4 -40
-2 -70 -18z"/>
<path d="M5437 14894 c-60 -7 -115 -18 -123 -25 -21 -17 -17 -38 11 -51 29
-13 32 -25 45 -193 l10 -130 -27 -22 c-23 -19 -26 -26 -17 -40 13 -21 45 -22
218 -5 187 18 256 63 286 183 21 84 -18 216 -77 257 -65 45 -130 50 -326 26z
m187 -94 c33 -40 46 -89 46 -173 0 -62 -3 -71 -29 -98 -31 -30 -74 -38 -88
-16 -9 14 -42 298 -36 310 2 4 22 7 43 7 30 0 43 -6 64 -30z"/>
<path d="M4925 14840 c-34 -13 -44 -34 -49 -96 -2 -32 -21 -113 -41 -179 -31
-97 -45 -126 -72 -152 -39 -37 -41 -48 -12 -64 22 -11 112 -5 156 12 29 11 31
49 2 56 -28 8 -21 45 11 54 14 4 51 7 82 8 64 1 77 -12 45 -46 -12 -13 -17
-29 -13 -39 6 -15 19 -16 109 -12 146 8 210 45 139 82 -17 9 -52 53 -91 118
-150 243 -196 287 -266 258z m65 -221 c16 -23 27 -45 24 -50 -5 -8 -104 -13
-104 -5 0 1 5 18 11 37 6 19 12 40 15 47 6 22 23 13 54 -29z"/>
<path d="M4337 14774 c-60 -7 -115 -18 -123 -25 -21 -18 -17 -38 11 -51 30
-14 31 -16 45 -187 l12 -134 -26 -24 c-30 -28 -32 -36 -11 -53 12 -10 37 -11
123 -1 59 7 130 14 158 17 113 11 187 71 214 173 23 86 -13 210 -74 255 -66
49 -128 55 -329 30z m187 -94 c37 -44 52 -112 47 -213 -2 -55 -93 -114 -117
-76 -8 14 -33 217 -34 277 l0 42 39 0 c31 0 44 -6 65 -30z"/>
<path d="M414 14696 c-38 -18 -100 -48 -138 -66 -38 -19 -87 -49 -110 -68 -23
-19 -63 -48 -90 -65 -34 -22 -53 -42 -58 -62 -12 -40 -3 -138 18 -199 30 -86
159 -192 176 -143 13 36 0 89 -30 120 -17 18 -36 45 -41 60 -14 36 -14 127 -1
127 6 0 10 -9 10 -20 0 -32 108 -228 150 -271 20 -22 46 -39 58 -39 24 0 47
34 36 53 -4 6 4 2 17 -10 29 -26 59 -15 59 22 0 13 5 35 11 49 13 28 8 45 -42
147 -15 31 -30 76 -33 100 -7 50 -13 56 72 -74 30 -45 65 -93 78 -107 l25 -25
29 33 c17 17 29 40 27 50 -1 9 -24 61 -51 115 -70 142 -69 146 5 179 36 17 59
33 57 40 -3 11 -140 86 -159 88 -3 0 -36 -15 -75 -34z"/>
<path d="M4902 13840 c0 -14 2 -19 5 -12 2 6 2 18 0 25 -3 6 -5 1 -5 -13z"/>
<path d="M4900 13763 c0 -21 -2 -76 -5 -123 -2 -51 -1 -71 4 -50 9 42 14 210
7 210 -4 0 -6 -17 -6 -37z"/>
<path d="M4881 13528 c2 -13 0 -29 -4 -35 -5 -7 -5 -19 -1 -25 6 -9 10 -5 15
12 11 39 10 70 -2 70 -6 0 -9 -10 -8 -22z"/>
<path d="M6550 11893 c0 -6 5 -15 11 -18 6 -4 14 -17 19 -29 5 -12 9 -15 9 -6
0 8 -8 26 -19 40 -11 14 -20 20 -20 13z"/>
<path d="M6790 10010 c0 -19 3 -21 12 -12 9 9 9 15 0 24 -9 9 -12 7 -12 -12z"/>
</g>
</svg>
