<?xml version="1.0" standalone="no"?>
<!DOCTYPE svg PUBLIC "-//W3C//DTD SVG 20010904//EN"
 "http://www.w3.org/TR/2001/REC-SVG-20010904/DTD/svg10.dtd">
<svg version="1.0" xmlns="http://www.w3.org/2000/svg"
 width="517.000000pt" height="1810.000000pt" viewBox="0 0 517.000000 1810.000000"
 preserveAspectRatio="xMidYMid meet">

<g transform="translate(0.000000,1810.000000) scale(0.100000,-0.100000)"
fill="#000000" stroke="none">
<path d="M2280 17661 c-14 -5 -47 -14 -75 -20 -27 -7 -87 -28 -133 -48 l-83
-35 -134 17 c-238 31 -330 9 -438 -103 -59 -61 -184 -211 -232 -278 -17 -23
-69 -93 -118 -157 -113 -151 -190 -274 -267 -428 -81 -162 -132 -248 -170
-289 -17 -18 -28 -35 -25 -38 3 -3 29 -5 58 -3 29 1 65 -2 79 -8 57 -21 131
-158 131 -240 0 -41 -44 -135 -69 -149 -21 -12 -12 -27 34 -56 40 -25 114 -46
160 -46 23 0 32 -7 45 -35 25 -52 22 -69 -29 -152 -52 -86 -52 -86 38 -140 98
-59 299 -90 387 -60 l43 15 -6 -40 c-4 -22 -13 -50 -21 -61 -8 -12 -15 -25
-15 -30 0 -10 46 -4 103 13 20 6 42 8 47 5 6 -3 10 -29 10 -58 0 -35 8 -69 26
-107 15 -30 31 -64 36 -75 20 -46 -32 -208 -93 -285 -34 -42 -48 -52 -106 -70
-50 -15 -81 -19 -115 -15 -42 6 -48 5 -48 -11 0 -10 16 -32 35 -50 19 -17 35
-36 35 -42 0 -5 -17 -13 -37 -17 -37 -6 -134 -41 -314 -110 -181 -69 -282
-173 -391 -404 -118 -246 -143 -383 -103 -546 12 -50 16 -105 15 -195 -5 -315
-4 -415 3 -555 7 -143 21 -338 31 -435 3 -25 7 -76 11 -115 10 -133 54 -582
60 -630 30 -217 29 -230 -16 -422 -44 -185 -80 -436 -84 -586 -5 -182 -7 -190
-56 -394 -21 -90 -41 -191 -44 -225 -7 -84 -13 -107 -34 -137 -15 -22 -24 -47
-36 -101 -1 -3 -5 -32 -9 -65 -4 -33 -16 -98 -27 -145 -33 -149 -44 -323 -30
-447 7 -59 15 -132 18 -161 5 -46 10 -56 44 -83 45 -36 47 -50 14 -104 -28
-46 -32 -77 -10 -95 8 -7 15 -18 15 -25 0 -7 11 -28 24 -47 20 -31 24 -48 25
-133 1 -54 6 -106 11 -115 10 -19 70 -46 122 -55 18 -3 33 -7 34 -8 0 -1 -3
-40 -7 -87 -5 -47 -9 -155 -9 -240 -1 -85 -5 -247 -11 -360 -14 -302 -12 -662
6 -945 29 -479 33 -603 29 -1055 -5 -695 -34 -1259 -84 -1657 -54 -422 -83
-540 -200 -788 -23 -49 -67 -146 -97 -215 -30 -69 -79 -166 -108 -215 -68
-115 -77 -137 -76 -205 0 -102 32 -204 113 -368 l51 -102 -12 -54 c-6 -29 -34
-97 -60 -150 -27 -53 -52 -108 -55 -122 -10 -38 11 -91 58 -153 136 -178 157
-217 164 -303 6 -73 -13 -127 -82 -243 -76 -126 -150 -311 -207 -513 l-20 -73
40 -67 c87 -143 128 -166 321 -177 90 -6 113 -4 160 13 30 11 107 38 170 60
63 22 159 57 213 76 54 20 106 36 115 36 10 0 34 -11 55 -26 39 -26 46 -29
247 -100 128 -46 280 -87 450 -123 156 -33 201 -38 357 -45 65 -3 188 -11 273
-17 89 -7 220 -9 307 -5 354 15 437 71 484 325 12 65 28 87 44 62 5 -10 56
-17 180 -25 90 -6 265 -35 530 -87 128 -24 254 -43 322 -46 109 -6 112 -5 179
26 190 89 322 244 393 461 46 139 49 261 11 363 -41 109 -81 133 -272 164 -80
13 -98 20 -98 34 0 40 -65 211 -117 309 -159 299 -155 290 -148 339 4 26 19
75 33 111 43 106 38 175 -27 333 -30 72 -55 151 -58 180 -6 56 12 140 63 304
39 126 36 143 -88 528 -161 499 -161 497 -159 703 0 90 3 167 6 172 3 6 6 191
6 413 l-1 403 98 50 97 51 -1 289 c-1 159 -4 521 -6 805 l-5 517 32 25 c45 36
41 70 -27 242 -31 77 -63 163 -72 190 -21 64 -21 64 -87 112 l-55 41 12 113
c6 63 14 264 16 448 l5 334 24 18 c13 10 44 25 69 34 69 23 110 52 110 76 0
11 7 35 15 52 20 45 45 160 51 238 8 93 -11 178 -63 292 -54 117 -54 149 -2
262 79 172 77 254 -9 515 -155 469 -171 537 -252 1040 -24 154 -41 421 -43
682 -2 164 1 200 13 212 8 9 65 34 125 57 115 43 183 85 309 190 83 69 80 64
141 319 15 63 36 124 45 135 17 19 17 27 -1 155 -13 91 -37 195 -75 320 -43
143 -62 230 -85 383 -25 174 -46 286 -120 642 -10 50 -29 131 -43 180 -13 50
-31 126 -40 171 -30 162 -134 486 -199 622 -17 35 -154 126 -214 141 -60 15
-229 32 -248 25 -7 -3 -14 5 -17 20 -10 50 13 141 57 231 25 50 48 105 51 123
4 18 11 35 15 38 19 11 7 56 -33 131 -38 73 -41 84 -41 158 -1 76 1 83 41 150
66 109 102 212 102 290 0 36 5 74 12 85 10 16 9 23 -8 42 -33 39 -55 98 -61
169 -5 62 -4 70 23 105 15 22 39 51 52 66 l25 27 -34 56 c-19 31 -54 78 -79
104 -25 27 -74 97 -109 156 -36 59 -79 127 -97 151 -18 23 -39 56 -48 71 -15
30 -81 90 -125 113 -15 8 -41 10 -71 6 -36 -5 -50 -3 -60 9 -25 30 -156 104
-265 151 -60 25 -152 64 -203 85 -154 66 -283 91 -352 70z m344 -1179 c34 -35
77 -73 95 -85 l35 -21 -40 -17 c-47 -21 -76 -32 -86 -30 -4 0 -20 -4 -35 -10
-15 -6 -37 -12 -48 -14 -47 -6 -141 -28 -158 -37 -43 -22 -30 13 39 105 24 33
44 65 44 73 0 8 9 14 20 14 13 0 20 7 20 20 0 11 7 38 17 61 14 36 17 39 26
23 6 -11 38 -47 71 -82z m493 -47 c9 -27 27 -69 40 -92 l25 -42 -74 33 c-40
19 -76 33 -79 30 -4 -2 -9 -18 -13 -35 -6 -31 8 -64 24 -54 4 3 51 -11 103
-31 73 -28 97 -42 106 -61 14 -32 7 -41 -14 -19 -12 11 -35 16 -78 16 -54 0
-67 -4 -97 -29 l-35 -29 4 40 c2 31 0 39 -10 36 -29 -10 -66 -200 -42 -219 10
-9 14 -5 19 20 4 18 12 30 18 28 6 -2 28 9 49 25 21 17 44 27 52 24 21 -8 18
-24 -6 -31 -15 -5 -17 -10 -10 -19 6 -7 8 -15 5 -18 -12 -13 48 -17 82 -5 38
12 47 22 64 70 5 16 14 25 20 22 13 -8 13 -155 1 -188 -12 -32 -3 -42 20 -21
16 15 18 13 26 -33 19 -114 -1 -251 -52 -358 -23 -48 -171 -284 -197 -315 -7
-8 -12 -16 -10 -17 1 -2 -14 -28 -34 -57 -59 -89 -116 -104 -294 -81 -113 15
-188 38 -345 105 -100 42 -101 42 -154 118 -30 43 -59 89 -64 103 -14 35 -2
76 24 84 54 18 90 73 87 137 -1 38 -9 50 -77 121 -92 95 -100 109 -101 168 0
53 36 118 140 253 l65 84 65 6 c124 12 325 48 348 63 19 12 23 21 20 49 -4 32
-2 34 26 34 16 0 38 7 48 17 17 15 18 15 18 -5 0 -12 -9 -24 -22 -28 -22 -7
-21 -8 7 -14 32 -6 51 6 109 65 l29 30 -6 -27 c-4 -14 -10 -34 -13 -43 -5 -13
-2 -16 12 -13 20 3 102 144 125 213 l14 39 8 -49 c4 -28 15 -72 24 -100z m-77
-339 c0 -2 -8 -10 -17 -17 -16 -13 -17 -12 -4 4 13 16 21 21 21 13z m-1457
-48 c39 -19 43 -38 7 -38 -16 0 -32 5 -35 10 -12 20 -30 10 -31 -17 -1 -16 -2
-49 -3 -75 0 -27 -5 -48 -10 -48 -10 0 -7 152 4 169 8 15 35 14 68 -1z m121
-178 c14 -36 30 -89 36 -119 10 -55 3 -138 -11 -124 -4 4 -32 84 -63 177 -51
157 -54 170 -38 182 15 11 19 8 34 -19 9 -18 29 -61 42 -97z m-154 -29 c0 -13
-26 -32 -33 -24 -4 3 -7 17 -7 30 0 21 3 22 20 13 11 -6 20 -14 20 -19z m-10
-81 c0 -5 -4 -10 -10 -10 -5 0 -10 5 -10 10 0 6 5 10 10 10 6 0 10 -4 10 -10z
m20 -85 c-6 -8 -9 -24 -6 -37 4 -13 -2 -7 -12 12 -10 19 -16 45 -14 58 l5 23
19 -21 c15 -16 17 -24 8 -35z m110 -110 c6 -8 9 -18 6 -23 -6 -11 -64 -3 -72
9 -17 27 44 41 66 14z m755 -493 c39 -17 96 -38 127 -48 31 -9 55 -21 52 -26
-3 -4 0 -8 5 -8 6 0 11 4 11 10 0 6 9 6 23 1 24 -10 24 -12 2 -91 -20 -71 -19
-158 1 -221 18 -53 34 -51 34 4 0 40 23 29 31 -14 4 -19 9 -68 12 -110 6 -72
5 -78 -18 -99 -25 -24 -33 -50 -16 -50 6 0 13 5 16 10 11 18 25 11 25 -13 0
-13 -5 -48 -11 -78 -9 -47 -14 -55 -32 -54 -29 1 -64 21 -162 90 l-80 57 73
-5 c39 -2 72 -3 72 -1 0 1 -14 13 -32 25 -27 20 -43 23 -96 20 -69 -3 -79 2
-154 66 l-44 39 28 28 c62 60 118 211 112 296 -6 66 -34 170 -46 170 -5 0 -7
4 -3 9 3 6 -4 15 -15 21 -11 6 -20 16 -20 22 0 6 8 4 18 -5 9 -9 49 -29 87
-45z m605 -82 c0 -46 -2 -50 -27 -56 -16 -3 -41 -9 -58 -14 -81 -22 -82 -22
-94 12 -18 51 -15 58 27 58 21 0 58 11 82 24 66 34 70 33 70 -24z m-180 -457
c0 -8 -14 -13 -39 -13 l-40 0 -6 48 c-4 26 -9 56 -11 67 -3 12 14 -1 45 -35
28 -30 51 -61 51 -67z m-561 -17 c18 -19 29 -36 24 -38 -17 -9 -72 -8 -78 2
-8 13 4 70 14 70 4 0 22 -15 40 -34z m615 -41 c6 -11 14 -22 17 -25 11 -9 20
-61 12 -73 -4 -7 -8 -14 -8 -17 -2 -17 -38 -71 -56 -84 -22 -15 -53 -66 -45
-73 3 -3 20 0 38 5 18 6 52 11 76 11 33 0 42 -4 42 -17 0 -10 7 -27 15 -38 8
-12 12 -24 9 -26 -6 -7 35 -238 47 -260 16 -30 10 -27 -31 14 l-39 40 5 -65
c4 -51 2 -72 -10 -89 l-16 -22 0 31 c0 36 -15 50 -58 59 -26 5 -32 3 -32 -11
0 -10 -15 11 -32 46 -39 76 -54 94 -61 75 -3 -7 -1 -19 4 -27 13 -22 11 -89
-5 -104 -11 -12 -22 -4 -69 46 -31 32 -61 59 -68 59 -6 0 1 -21 16 -47 24 -39
26 -51 19 -82 -7 -27 -14 -35 -27 -33 -27 5 -50 -17 -36 -34 19 -23 -9 -47
-45 -40 l-30 6 24 -25 24 -26 -49 22 c-58 25 -60 27 -52 35 4 4 14 1 23 -7 14
-11 19 -10 35 11 10 14 19 30 19 37 0 23 -38 98 -59 118 -13 11 -38 48 -58 83
-19 34 -54 88 -77 120 -53 71 -71 120 -91 242 -9 52 -19 105 -21 117 -6 20 -3
21 58 16 56 -5 71 -11 133 -57 127 -93 227 -151 240 -138 4 4 -1 -11 -10 -33
-31 -71 -30 -77 21 -138 61 -75 80 -74 105 8 26 82 24 96 -15 145 -28 36 -33
48 -25 67 5 14 9 62 9 108 0 84 0 84 28 88 56 9 95 3 106 -18z m-151 -249 c15
-22 15 -25 0 -30 -22 -9 -42 11 -36 34 7 26 17 25 36 -4z m17 -118 c0 -14 -13
-38 -20 -38 -4 0 -15 11 -23 24 -15 22 -15 23 14 22 16 -1 29 -4 29 -8z m-406
-267 c16 -18 16 -18 -9 -14 -25 5 -31 14 -18 26 9 9 8 10 27 -12z m709 -31 c2
-14 -2 -30 -9 -37 -19 -19 -26 -16 -14 6 5 11 10 30 10 42 0 28 8 21 13 -11z
m-888 10 c-4 -6 5 -10 20 -10 15 0 24 -4 20 -10 -6 -10 -43 -8 -112 7 l-38 8
45 6 c25 3 51 7 58 7 7 1 10 -2 7 -8z m-122 -20 c9 0 17 -5 17 -11 0 -6 -7 -8
-17 -4 -15 5 -16 4 -5 -7 11 -11 16 -10 28 6 8 11 14 15 14 9 0 -5 10 -15 23
-20 18 -9 10 -11 -46 -14 -46 -3 -67 0 -67 8 0 6 -3 19 -7 29 -5 14 -2 16 18
11 13 -4 32 -7 42 -7z m329 -38 c5 -18 13 -30 18 -27 5 3 12 0 16 -6 4 -8 3
-9 -4 -5 -7 4 -12 2 -12 -4 0 -24 -39 11 -42 37 -2 22 -10 29 -33 35 -27 6
-25 6 9 5 36 -2 41 -5 48 -35z m-110 15 c14 -11 12 -13 -20 -14 -20 -1 -38 -5
-40 -11 -1 -5 -14 -7 -27 -4 -25 4 -25 4 7 23 39 21 57 23 80 6z m-130 -74
c19 -18 28 -22 29 -12 0 8 3 9 5 3 4 -9 95 -9 159 0 25 4 45 -6 83 -41 49 -46
57 -50 113 -62 29 -7 65 -15 78 -18 18 -4 22 -3 16 7 -5 9 -4 11 4 6 6 -4 9
-11 7 -15 -2 -3 27 -24 66 -46 38 -22 83 -50 98 -63 42 -33 90 -122 90 -166 0
-44 16 -40 23 6 16 99 20 118 27 118 15 0 42 80 38 111 -4 28 -1 33 28 45 18
7 41 25 52 39 12 14 30 25 44 25 21 0 27 -8 40 -56 l16 -56 -50 -52 c-28 -28
-76 -94 -107 -146 -72 -120 -85 -123 -199 -56 -98 57 -308 157 -391 185 -147
50 -333 82 -347 60 -7 -12 -52 160 -54 205 0 30 94 15 132 -21z m944 29 c19
-12 27 -52 11 -52 -8 0 -17 7 -21 15 -4 10 -15 14 -38 11 -18 -3 -39 -5 -46
-5 -7 -1 -11 -5 -7 -10 3 -5 1 -12 -4 -15 -11 -7 -23 22 -15 35 3 5 31 9 62 9
41 0 53 3 42 10 -8 5 -10 10 -5 10 6 0 15 -4 21 -8z m-871 -22 c3 -5 2 -10 -4
-10 -5 0 -13 5 -16 10 -3 6 -2 10 4 10 5 0 13 -4 16 -10z m56 -1 c-16 -6 -28
-6 -35 1 -7 7 1 10 25 9 32 0 33 -1 10 -10z m329 -49 c0 -5 -2 -10 -4 -10 -3
0 -8 5 -11 10 -3 6 -1 10 4 10 6 0 11 -4 11 -10z m420 -36 c0 -2 -11 -4 -25
-4 -14 0 -25 4 -25 9 0 4 11 6 25 3 14 -2 25 -6 25 -8z m109 -1043 c10 -6 11
-13 2 -29 -6 -11 -11 -31 -11 -44 0 -15 -15 -38 -37 -60 -62 -58 -416 -336
-706 -555 -67 -50 -117 -105 -117 -129 0 -10 -100 -105 -119 -112 -4 -1 -3 31
3 72 6 48 6 125 -1 213 -5 76 -10 223 -12 327 -2 188 -2 189 19 183 60 -16
432 42 662 102 62 16 124 32 138 34 47 8 165 7 179 -2z m-782 -899 c16 -20 40
-67 52 -104 24 -71 37 -186 24 -204 -4 -6 -39 -28 -78 -50 -39 -21 -110 -76
-161 -124 -72 -68 -111 -96 -187 -133 -53 -26 -100 -47 -104 -47 -5 0 -61 -54
-125 -120 -116 -118 -158 -179 -173 -250 -4 -19 -12 -42 -17 -50 -7 -11 -8 -8
-4 11 4 17 0 31 -9 39 -32 27 7 136 78 218 53 62 131 230 116 248 -6 8 -15 14
-19 14 -8 0 -171 -92 -217 -123 -39 -26 -78 -108 -98 -203 -17 -81 -25 -92
-25 -33 0 25 -4 49 -10 55 -7 7 -1 37 16 89 23 68 36 90 89 145 62 65 93 110
77 110 -14 0 -147 -141 -175 -187 -14 -23 -35 -68 -46 -100 -18 -50 -20 -54
-21 -26 0 17 -4 34 -9 37 -4 3 -4 28 0 56 9 58 59 133 159 239 62 67 78 104
40 94 -24 -6 -123 -111 -186 -197 -24 -32 -45 -52 -45 -45 -4 45 2 65 41 131
24 40 81 111 127 159 46 47 83 91 83 98 0 20 -26 12 -58 -20 -40 -40 -51 -32
-22 16 42 68 136 94 443 120 98 8 188 20 200 26 20 10 65 47 160 131 36 31 45
29 84 -20z m931 -487 c11 -33 28 -77 36 -97 9 -21 16 -41 16 -46 0 -13 -222
-63 -435 -98 l-40 -6 32 23 c48 37 121 97 202 169 110 96 155 130 162 122 4
-4 16 -34 27 -67z m-988 -1732 c0 -6 4 -13 9 -15 5 -1 23 -25 40 -53 17 -27
59 -79 94 -115 136 -144 237 -294 237 -355 0 -22 18 -112 40 -200 22 -87 40
-161 40 -163 0 -2 -13 5 -29 14 -37 22 -75 104 -91 195 -11 62 -16 70 -83 143
-40 42 -76 76 -80 76 -16 0 1 -166 28 -269 36 -141 68 -198 179 -321 53 -58
96 -110 96 -117 0 -7 -49 26 -108 72 -83 65 -118 99 -146 145 -20 33 -45 64
-55 70 -10 5 -28 25 -40 45 -11 19 -25 35 -31 35 -18 0 -11 -51 22 -170 l32
-115 105 -107 c85 -89 102 -110 92 -122 -10 -12 -21 -9 -68 25 -31 21 -62 39
-68 39 -17 0 -54 57 -114 175 -54 104 -71 130 -71 105 1 -23 36 -98 87 -180
44 -74 83 -111 182 -174 64 -41 34 -44 -40 -5 -49 26 -81 56 -162 151 -113
132 -164 174 -186 151 -10 -11 -10 -21 -3 -41 6 -15 14 -41 17 -59 8 -39 50
-99 126 -180 33 -34 59 -66 59 -71 0 -6 3 -18 7 -27 19 -50 -122 74 -178 156
-21 32 -64 108 -95 169 -55 109 -55 112 -65 233 -5 67 -9 172 -9 232 0 80 -6
142 -24 227 -30 141 -71 285 -87 304 -23 28 42 73 177 122 111 41 125 43 146
12 10 -14 18 -30 18 -37z"/>
<path d="M2400 16152 c8 -5 53 -12 100 -15 80 -6 87 -8 114 -39 34 -37 95 -88
106 -88 4 0 10 7 14 15 4 10 -18 33 -69 71 l-74 56 -103 5 c-65 2 -98 1 -88
-5z"/>
<path d="M2360 16105 c-36 -7 -80 -13 -98 -14 -36 -1 -54 -27 -31 -42 8 -6 37
-7 64 -3 79 10 115 8 128 -5 9 -10 8 -15 -6 -25 -24 -18 -13 -41 29 -61 67
-32 154 7 154 69 0 17 8 12 41 -26 43 -50 56 -57 65 -34 7 19 -78 100 -138
132 -53 27 -102 29 -208 9z"/>
<path d="M3239 16009 c-41 -33 -94 -40 -146 -21 -44 17 -44 17 -63 -8 -25 -32
-25 -36 5 -65 42 -43 117 -29 99 18 -3 9 7 14 33 15 47 4 103 37 103 63 0 23
1 23 -31 -2z"/>
<path d="M2240 16000 c0 -28 66 -95 96 -97 16 -2 61 -5 99 -9 39 -3 94 -2 123
4 51 9 52 9 52 -14 0 -16 6 -24 17 -24 18 0 83 46 83 60 0 5 -15 16 -34 25
-32 15 -36 15 -68 -2 -37 -20 -182 -25 -252 -9 -36 8 -39 7 -32 -10 4 -11 -4
-6 -18 11 -58 73 -65 80 -66 65z"/>
<path d="M2990 15921 c0 -6 5 -13 10 -16 6 -3 10 1 10 9 0 9 -4 16 -10 16 -5
0 -10 -4 -10 -9z"/>
<path d="M2930 15880 c-8 -5 -11 -12 -8 -16 10 -9 38 3 38 16 0 12 -10 13 -30
0z"/>
<path d="M3110 15830 c0 -5 5 -10 10 -10 6 0 10 5 10 10 0 6 -4 10 -10 10 -5
0 -10 -4 -10 -10z"/>
<path d="M2760 15814 c0 -8 5 -12 10 -9 6 4 8 11 5 16 -9 14 -15 11 -15 -7z"/>
<path d="M3062 15809 c2 -6 8 -10 13 -10 5 0 11 4 13 10 2 6 -4 11 -13 11 -9
0 -15 -5 -13 -11z"/>
<path d="M2905 15781 c-6 -11 9 -23 19 -14 9 9 7 23 -3 23 -6 0 -12 -4 -16 -9z"/>
<path d="M2820 15760 c0 -11 5 -20 10 -20 6 0 10 9 10 20 0 11 -4 20 -10 20
-5 0 -10 -9 -10 -20z"/>
<path d="M3167 15774 c-10 -10 -9 -44 2 -44 13 0 23 32 13 42 -5 5 -11 5 -15
2z"/>
<path d="M2520 15760 c0 -5 5 -10 10 -10 6 0 10 5 10 10 0 6 -4 10 -10 10 -5
0 -10 -4 -10 -10z"/>
<path d="M2703 15755 c-7 -20 2 -29 21 -22 9 4 13 13 10 22 -8 19 -23 19 -31
0z"/>
<path d="M3280 15740 c0 -5 7 -10 15 -10 8 0 15 5 15 10 0 6 -7 10 -15 10 -8
0 -15 -4 -15 -10z"/>
<path d="M3038 15727 c-7 -7 -21 -16 -30 -20 -10 -3 -18 -11 -18 -16 0 -14 41
-25 49 -13 3 5 22 0 44 -14 29 -19 37 -31 37 -53 0 -23 -5 -30 -21 -33 -12 -2
-25 -10 -29 -18 -4 -8 -12 -25 -18 -36 -19 -38 11 -46 48 -14 13 11 27 20 31
20 9 0 15 19 24 71 6 32 2 40 -40 87 -50 56 -57 59 -77 39z"/>
<path d="M2376 15713 c-11 -11 -6 -23 9 -23 8 0 15 4 15 9 0 13 -16 22 -24 14z"/>
<path d="M3234 15689 c-10 -17 13 -36 27 -22 12 12 4 33 -11 33 -5 0 -12 -5
-16 -11z"/>
<path d="M2445 15680 c-3 -5 1 -10 9 -10 9 0 16 5 16 10 0 6 -4 10 -9 10 -6 0
-13 -4 -16 -10z"/>
<path d="M2840 15577 c0 -13 8 -31 18 -39 18 -16 99 -48 121 -48 24 0 5 24
-30 37 l-34 13 47 -4 c53 -4 63 1 47 21 -8 8 -34 13 -76 13 -47 0 -65 4 -69
15 -9 23 -24 18 -24 -8z"/>
<path d="M2943 15410 c-44 -10 -69 -28 -147 -102 -113 -108 -79 -146 118 -131
78 6 82 8 128 51 74 69 89 154 33 180 -29 13 -83 14 -132 2z m87 -45 c0 -23
-3 -25 -52 -26 -29 0 -63 -2 -76 -3 -13 -2 -21 2 -19 8 6 19 70 46 110 46 33
0 37 -3 37 -25z"/>
<path d="M2573 14967 c-3 -5 1 -13 8 -18 12 -7 28 5 29 22 0 9 -30 6 -37 -4z"/>
<path d="M2175 8490 c3 -5 8 -10 11 -10 2 0 4 5 4 10 0 6 -5 10 -11 10 -5 0
-7 -4 -4 -10z"/>
</g>
</svg>
